<?xml version="1.0" encoding="UTF-8"?>
<svg width="13px" height="22px" viewBox="0 0 13 22" version="1.1" xmlns="http://www.w3.org/2000/svg" xmlns:xlink="http://www.w3.org/1999/xlink">
    <title>路径</title>
    <g id="星际云二期" stroke="none" stroke-width="1" fill="none" fill-rule="evenodd">
        <g id="提现记录" transform="translate(-698.000000, -281.000000)" fill="#969696" fill-rule="nonzero" stroke="#969696">
            <g id="BTC" transform="translate(0.000000, 222.000000)">
                <path d="M709.717057,78.3585106 L701.268276,70.0473533 L709.662375,61.6130477 C710.034946,61.2426694 710.033618,60.6408328 709.659494,60.2688774 L709.659462,60.2688774 C709.285337,59.8968897 708.680024,59.8956022 708.307648,60.3610616 L699.353332,69.2634658 C699.232542,69.3978796 699.093718,69.5566592 699.0707,69.6423415 C698.929254,69.9918625 699,70.4213043 699.283014,70.7743015 L708.362426,79.8010772 C708.738137,80.0793678 709.346235,80.0808162 709.720391,79.7088286 C710.094483,79.336841 710.093026,78.7323007 709.717057,78.3585106 Z" id="路径" transform="translate(704.500000, 70.000000) scale(-1, 1) translate(-704.500000, -70.000000) "></path>
            </g>
        </g>
    </g>
</svg>