<?xml version="1.0" encoding="UTF-8"?>
<svg width="550px" height="320px" viewBox="0 0 550 320" version="1.1" xmlns="http://www.w3.org/2000/svg" xmlns:xlink="http://www.w3.org/1999/xlink">
    <title>身份证背面</title>
    <defs>
        <path d="M345.92952,210.663086 C345.92952,216.937062 340.855703,222 334.567209,222 L11.3604769,222 C5.07224495,222 0,216.937062 0,210.663086 L0,11.3361301 C0,5.06241534 5.07224495,0 11.3604769,0 L334.566685,0 C337.567481,0 340.498059,1.21365172 342.641822,3.35054684 C344.785847,5.48979432 346,8.34186312 346,11.4064451 L346,210.663086 L345.92952,210.663086 Z" id="path-1"></path>
        <filter x="-5.9%" y="-7.4%" width="111.8%" height="118.5%" filterUnits="objectBoundingBox" id="filter-2">
            <feMorphology radius="0.5" operator="dilate" in="SourceAlpha" result="shadowSpreadOuter1"></feMorphology>
            <feOffset dx="0" dy="4" in="shadowSpreadOuter1" result="shadowOffsetOuter1"></feOffset>
            <feGaussianBlur stdDeviation="6" in="shadowOffsetOuter1" result="shadowBlurOuter1"></feGaussianBlur>
            <feComposite in="shadowBlurOuter1" in2="SourceAlpha" operator="out" result="shadowBlurOuter1"></feComposite>
            <feColorMatrix values="0 0 0 0 0.901960784   0 0 0 0 0.937254902   0 0 0 0 0.984313725  0 0 0 0.5 0" type="matrix" in="shadowBlurOuter1"></feColorMatrix>
        </filter>
    </defs>
    <g id="星际云二期" stroke="none" stroke-width="1" fill="none" fill-rule="evenodd">
        <g id="我的_设置_身份认证" transform="translate(-100.000000, -730.000000)">
            <g id="身份证背面" transform="translate(100.000000, 730.000000)">
                <rect id="背景" fill="#F6F9FC" x="0" y="0" width="550" height="320" rx="12"></rect>
                <g id="卡" transform="translate(102.000000, 49.000000)" fill-rule="nonzero">
                    <g>
                        <g id="路径">
                            <use fill="black" fill-opacity="1" filter="url(#filter-2)" xlink:href="#path-1"></use>
                            <use stroke="#EFF3F6" stroke-width="1" fill="#FFFFFF" xlink:href="#path-1"></use>
                        </g>
                        <path d="M142.531343,51.9587629 L164.776119,51.9587629 L164.776119,64.7002754 L142.531343,64.7002754 L142.531343,51.9587629 Z M142.531343,83.7743111 L164.776119,83.7743111 L164.776119,96.5150406 L142.531343,96.5150406 L142.531343,83.7743111 Z M173.838806,51.9587629 L312.250746,51.9587629 L312.250746,64.7002754 L173.838806,64.7002754 L173.838806,51.9587629 Z M173.838806,83.7743111 L312.250746,83.7743111 L312.250746,96.5150406 L173.838806,96.5150406 L173.838806,83.7743111 Z M104.947221,181.357838 L311.902873,181.357838 L311.902873,194.097001 L104.947221,194.097001 L104.947221,181.357838 L104.947221,181.357838 Z M31.5055673,181.357838 L97.2312722,181.357838 L97.2312722,194.097001 L31.5055673,194.097001 L31.5055673,181.357838 Z" id="形状" fill="#F6F9FC"></path>
                    </g>
                    <g id="编组" transform="translate(126.053731, 63.505155)">
                        <path d="M0,47.0103093 C0,72.9733862 21.0252427,94.0206186 46.961194,94.0206186 C72.8971453,94.0206186 93.9223881,72.9733862 93.9223881,47.0103093 C93.9223881,21.0472324 72.8971453,0 46.961194,0 C21.0252427,0 0,21.0472324 0,47.0103093 L0,47.0103093 Z" id="路径" fill="#000000" opacity="0.4"></path>
                        <path d="M46.7140299,36.2628866 C53.4940523,36.2628866 58.8250746,41.581833 58.8250746,48.3514011 C58.8250746,55.1174267 53.4940523,60.4381443 46.7140299,60.4381443 C39.9304029,60.4381443 34.6029851,55.1191979 34.6029851,48.3514011 C34.6029851,41.581833 39.9304031,36.2628866 46.7140299,36.2628866 Z M46.7122198,40.5798969 C42.4111838,40.5798969 38.9283582,44.0599953 38.9283582,48.3514051 C38.9283582,52.6428149 42.414804,56.121134 46.7122198,56.121134 C51.0132557,56.121134 54.4997015,52.6428149 54.4997015,48.3514051 C54.4997015,44.0599953 51.0132557,40.5798969 46.7122198,40.5798969 Z M39.7057956,25.9020619 L35.5017241,30.9266576 L28.0285918,30.9266576 C25.4581817,30.9266576 23.3570149,32.8218078 23.3570149,35.4459965 L23.3570149,62.5725193 C23.3570149,65.1984561 25.4599197,67.3453608 28.0268538,67.3453608 L65.3994679,67.3453608 C67.969878,67.3453608 70.0710448,65.1984564 70.0710448,62.5725193 L70.0710448,35.4459965 C70.0710448,32.8235561 67.96814,30.9266576 65.3994679,30.9266576 L57.9263356,30.9266576 L53.7187882,25.9020619 L39.7040576,25.9020619 L39.7057956,25.9020619 Z" id="形状" fill="#F6F9FC"></path>
                    </g>
                    <g id="国徽" transform="translate(27.188060, 32.989691)" fill="#E3E9F0">
                        <path d="M92.0300373,46.0244845 C92.0300373,20.6056701 71.4458955,0 46.0536381,0 C20.6613806,0 0.077238806,20.6056701 0.077238806,46.0244845 C0.077238806,58.5599227 5.08810634,69.935567 13.2078358,78.2280928 L13.2078358,92.0393041 C13.2078358,92.0393041 22.6695896,100.805412 28.530084,98.6114691 C29.2831623,98.3118557 29.5824627,96.5625 29.6210821,94.2622423 C34.5643657,97.1810567 40.2510728,98.6984536 46.0439832,98.6114691 C52.5223881,98.5148196 58.7208022,96.1275773 63.5771922,91.9329897 C63.4709888,95.1610825 63.6640858,97.9445876 64.5812966,98.3311856 C70.123181,100.525129 78.8801306,91.7590206 78.8801306,91.7590206 L78.8801306,78.2280928 C87.0191698,69.9259021 92.0300373,58.5599227 92.0300373,46.0244845 Z M54.3085354,78.8949742 C53.111334,76.3337629 49.8673041,74.5070876 46.0536381,74.5070876 C42.239972,74.5070876 38.9959422,76.3337629 37.7987407,78.8949742 L33.8402519,78.8949742 C28.7714552,77.0103093 24.2626399,73.9851804 20.6227612,70.128866 L71.4941698,70.128866 C67.8446362,73.9851804 63.3358209,77.0103093 58.2766791,78.8949742 L54.3085354,78.8949742 Z M21.2889459,21.2242268 C27.8542444,14.6520619 36.7656716,10.9503866 46.0536381,10.9503866 C65.401959,10.9503866 81.0814366,26.6462629 81.0814366,46.0148196 C81.0814366,53.3311856 78.8415112,60.1159794 75.0181903,65.7409794 L62.6889459,65.7409794 L59.1842351,56.9748711 L32.923041,56.9748711 L29.4183302,65.7409794 L17.0890858,65.7409794 C13.2657649,60.1256443 11.0258396,53.3311856 11.0258396,46.0148196 C11.0258396,36.7171392 14.7139925,27.8060567 21.2889459,21.2242268 L21.2889459,21.2242268 Z" id="形状"></path>
                        <path d="M40.6469216,41.6365979 L46.0536381,39.181701 L51.4603545,41.6849227 L50.5817631,36.1565722 L54.791278,32.1746134 L48.8535448,31.2274485 L46.0536381,26.2983247 L43.2537313,31.2081186 L37.2966884,32.1456186 L41.5255131,36.1179124 L40.6469216,41.6365979 Z M23.6350746,43.8305412 L26.3480877,42.4291237 L28.9742071,43.7628866 L28.5397388,40.6314433 L30.7313899,38.4375 L27.748041,37.8865979 L26.3480877,35.064433 L24.9481343,37.9542526 L21.9744403,38.5051546 L24.1660914,40.6990979 L23.6350746,43.8305412 Z M54.0188899,46.7203608 L52.6189366,43.8305412 L51.2189832,46.6527062 L48.2452892,47.1842784 L50.4272854,49.3782216 L49.9252332,52.5966495 L52.6189366,51.195232 L55.3319496,52.5966495 L54.8105877,49.4652062 L57.0022388,47.2712629 L54.0188899,46.7203608 Z M36.7753265,52.5966495 L39.4883396,51.195232 L42.114459,52.5289948 L41.6703358,49.3975515 L43.8619869,47.2036082 L40.8882929,46.6527062 L39.4883396,43.8305412 L38.0883862,46.7203608 L35.1050373,47.2712629 L37.2966884,49.4652062 L36.7753265,52.5966495 Z M63.0654851,43.8305412 L65.7591884,42.4291237 L68.4722015,43.8305412 L67.9411847,40.6990979 L70.1328358,38.5051546 L67.1591418,37.9542526 L65.7591884,35.064433 L64.3592351,37.8865979 L61.3758862,38.4181701 L63.5675373,40.6121134 L63.0654851,43.8305412 Z" id="形状"></path>
                    </g>
                </g>
            </g>
        </g>
    </g>
</svg>