<svg width="40" height="44" viewBox="0 0 40 44" fill="none" xmlns="http://www.w3.org/2000/svg">
<g id="&#231;&#188;&#150;&#231;&#187;&#132;">
<path id="&#229;&#189;&#162;&#231;&#138;&#182;" fill-rule="evenodd" clip-rule="evenodd" d="M30 20H10C8.9 20 8 19.1 8 18C8 16.9 8.9 16 10 16H30C31.1 16 32 16.9 32 18C32 19.1 31.1 20 30 20ZM24.5 28H9.5C8.675 28 8 27.1 8 26C8 24.9 8.675 24 9.5 24H24.5C25.325 24 26 24.9 26 26C26 27.1 25.325 28 24.5 28ZM10 36H20C21.1 36 22 35.1 22 34C22 32.9 21.1 32 20 32H10C8.9 32 8 32.9 8 34C8 35.1 8.9 36 10 36Z" fill="black"/>
<path id="&#232;&#183;&#175;&#229;&#190;&#132;" d="M33.6842 44H6.31579C2.84211 44 0 41.3 0 38V10C0 6.7 2.84211 4 6.31579 4C7.47368 4 8.42105 4.9 8.42105 6C8.42105 7.1 7.47368 8 6.31579 8C5.1579 8 4.21053 8.9 4.21053 10V38C4.21053 39.1 5.1579 40 6.31579 40H33.6842C34.8421 40 35.7895 39.1 35.7895 38V10C35.7895 8.9 34.8421 8 33.6842 8C32.5263 8 31.5789 7.1 31.5789 6C31.5789 4.9 32.5263 4 33.6842 4C37.1579 4 40 6.7 40 10V38C40 41.3 37.1579 44 33.6842 44Z" fill="black"/>
<path id="&#229;&#189;&#162;&#231;&#138;&#182;_2" fill-rule="evenodd" clip-rule="evenodd" d="M17 12H23C26.3 12 29 9.3 29 6C29 2.7 26.3 0 23 0H17C13.7 0 11 2.7 11 6C11 9.3 13.7 12 17 12ZM15 6C15 4.9 15.9 4 17 4H23C24.1 4 25 4.9 25 6C25 7.1 24.1 8 23 8H17C15.9 8 15 7.1 15 6Z" fill="#42C1CA"/>
</g>
</svg>
