<svg width="160" height="160" viewBox="0 0 160 160" fill="none" xmlns="http://www.w3.org/2000/svg">
<g id="&#231;&#188;&#150;&#231;&#187;&#132;">
<circle id="Oval" cx="80" cy="80" r="80" fill="#F5F5F5"/>
<mask id="mask0" mask-type="alpha" maskUnits="userSpaceOnUse" x="0" y="0" width="160" height="160">
<circle id="Oval_2" cx="80" cy="80" r="80" fill="white"/>
</mask>
<g mask="url(#mask0)">
<path id="&#231;&#159;&#169;&#229;&#189;&#162;" fill-rule="evenodd" clip-rule="evenodd" d="M42.6667 50.3689L117.333 34.8133C123.224 33.586 128 37.3667 128 43.2578V151.258C128 157.149 123.224 162.919 117.333 164.147L42.6667 179.702C36.7756 180.929 32 177.149 32 171.258V63.2578C32 57.3667 36.7756 51.5962 42.6667 50.3689Z" fill="url(#paint0_linear)"/>
<path id="&#231;&#159;&#169;&#229;&#189;&#162;_2" opacity="0.4" fill-rule="evenodd" clip-rule="evenodd" d="M52 75.0065L108 63.3399C111.682 62.5728 114.667 64.9357 114.667 68.6176C114.667 72.2995 111.682 75.9061 108 76.6732L52 88.3399C48.3181 89.1069 45.3333 86.744 45.3333 83.0621C45.3333 79.3802 48.3181 75.7736 52 75.0065Z" fill="#FA6400"/>
<path id="&#231;&#159;&#169;&#229;&#189;&#162;&#229;&#164;&#135;&#228;&#187;&#189;" opacity="0.25" fill-rule="evenodd" clip-rule="evenodd" d="M52 101.673L108 90.0065C111.682 89.2394 114.667 91.6024 114.667 95.2843C114.667 98.9662 111.682 102.573 108 103.34L52 115.007C48.3181 115.774 45.3333 113.411 45.3333 109.729C45.3333 106.047 48.3181 102.44 52 101.673Z" fill="#FA6400"/>
<path id="&#231;&#159;&#169;&#229;&#189;&#162;&#229;&#164;&#135;&#228;&#187;&#189; 2" opacity="0.1" fill-rule="evenodd" clip-rule="evenodd" d="M52 128.34L108 116.673C111.682 115.906 114.667 118.269 114.667 121.951C114.667 125.633 111.682 129.239 108 130.007L52 141.673C48.3181 142.44 45.3333 140.077 45.3333 136.395C45.3333 132.714 48.3181 129.107 52 128.34Z" fill="#FA6400"/>
</g>
</g>
<defs>
<linearGradient id="paint0_linear" x1="128" y1="23" x2="-23.2483" y2="152.447" gradientUnits="userSpaceOnUse">
<stop stop-color="#FA6400" stop-opacity="0.5"/>
<stop offset="1" stop-color="#FA6400" stop-opacity="0"/>
</linearGradient>
</defs>
</svg>
