<svg width="100" height="100" viewBox="0 0 100 100" fill="none" xmlns="http://www.w3.org/2000/svg">
<path d="M28.0548 89.1435C27.9026 89.0494 27.793 88.8998 27.749 88.7264C27.7049 88.553 27.73 88.3693 27.8188 88.214C27.9076 88.0587 28.0533 87.944 28.2251 87.8941C28.3969 87.8441 28.5814 87.8628 28.7396 87.9463C35.3023 91.6999 42.734 93.6686 50.2943 93.6563C72.4218 93.6563 90.9542 77.0404 93.4814 55.2407C93.5089 55.0644 93.6036 54.9055 93.7457 54.7975C93.8878 54.6895 94.0662 54.6408 94.2435 54.6615C94.4208 54.6823 94.5831 54.7709 94.6964 54.9089C94.8097 55.0468 94.8652 55.2232 94.8511 55.4012C92.2428 77.8926 73.1256 95.0363 50.2943 95.0363C42.4937 95.0484 34.8259 93.0167 28.0548 89.1435ZM70.9348 10.3424C71.092 10.4294 71.2091 10.5744 71.2612 10.7465C71.3132 10.9185 71.296 11.1041 71.2133 11.2637C71.1306 11.4233 70.9888 11.5443 70.8183 11.601C70.6477 11.6577 70.4617 11.6455 70.2999 11.5672C64.1199 8.35957 57.2572 6.6902 50.2943 6.70079C28.4412 6.70079 10.0606 22.9164 7.20043 44.378C7.17618 44.5594 7.08086 44.7237 6.93544 44.8349C6.79002 44.946 6.60641 44.9948 6.42501 44.9706C6.2436 44.9463 6.07926 44.851 5.96813 44.7056C5.85701 44.5601 5.8082 44.3765 5.83245 44.1951C8.78404 22.0504 27.7477 5.32074 50.2943 5.32074C57.5776 5.32074 64.6124 7.05788 70.9348 10.3407V10.3424Z" fill="#DCDCDC"/>
<path d="M49.3128 77.3699C49.2221 77.3699 49.1324 77.3521 49.0486 77.3175C48.9649 77.2828 48.8888 77.232 48.8247 77.1679C48.7606 77.1038 48.7097 77.0277 48.675 76.944C48.6404 76.8603 48.6225 76.7705 48.6225 76.6799C48.6225 76.5893 48.6404 76.4995 48.675 76.4158C48.7097 76.332 48.7606 76.256 48.8247 76.1919C48.8888 76.1278 48.9649 76.077 49.0486 76.0423C49.1324 76.0077 49.2221 75.9898 49.3128 75.9899C58.9731 75.9899 67.7365 70.8336 72.4977 62.6309C72.5432 62.5524 72.6038 62.4837 72.6759 62.4286C72.748 62.3735 72.8302 62.3331 72.9179 62.3098C73.0056 62.2865 73.0971 62.2807 73.187 62.2928C73.277 62.3048 73.3637 62.3344 73.4422 62.3799C73.5206 62.4255 73.5894 62.486 73.6445 62.5581C73.6996 62.6302 73.74 62.7125 73.7633 62.8002C73.7866 62.8879 73.7924 62.9793 73.7803 63.0693C73.7683 63.1592 73.7387 63.2459 73.6932 63.3244C71.2181 67.5981 67.6625 71.1456 63.3832 73.6109C59.1039 76.0762 54.2514 77.3726 49.3128 77.3699ZM53.6375 21.3553C53.8125 21.3895 53.9674 21.49 54.0698 21.6359C54.1722 21.7818 54.2143 21.9616 54.1871 22.1378C54.1599 22.3139 54.0655 22.4727 53.9239 22.5809C53.7822 22.6891 53.6042 22.7382 53.4271 22.7181C52.0746 22.5111 50.7015 22.4041 49.3128 22.4041C44.3482 22.4028 39.4808 23.7811 35.254 26.3852C31.0272 28.9894 27.6072 32.7169 25.3757 37.1517C25.335 37.2327 25.2786 37.3048 25.21 37.3641C25.1413 37.4233 25.0616 37.4684 24.9755 37.4968C24.8894 37.5253 24.7986 37.5365 24.7081 37.5298C24.6177 37.5231 24.5295 37.4987 24.4485 37.4579C24.3675 37.4171 24.2954 37.3608 24.2361 37.2921C24.1769 37.2235 24.1318 37.1438 24.1034 37.0577C24.0749 36.9716 24.0637 36.8807 24.0704 36.7903C24.0771 36.6999 24.1015 36.6117 24.1423 36.5307C26.4889 31.8675 30.0852 27.9481 34.5298 25.2099C38.9744 22.4717 44.0924 21.0225 49.3128 21.024C50.7705 21.024 52.2161 21.1362 53.6375 21.3553ZM49.4215 16.1973L47.0167 17.5135L47.4324 14.8052L45.4365 12.9249L48.1432 12.485L49.3128 10.006L50.5686 12.4418L53.2873 12.7886L51.3587 14.7362L51.8693 17.429L49.4215 16.1973ZM74.9404 75.0859L72.5356 76.4039L72.9514 73.6955L70.9555 71.8152L73.6621 71.3753L74.8317 68.8964L76.0875 71.3322L78.8063 71.6789L76.8776 73.6265L77.3882 76.3193L74.9404 75.0859ZM63.241 85.5588L60.5895 86.2557L61.6487 83.7268L60.1652 81.4221L62.8977 81.6464L64.6331 79.5245L65.2627 82.1932L67.8158 83.1868L65.4732 84.61L65.3179 87.3477L63.241 85.5588ZM48.6779 89.128L45.9523 88.8278L47.8482 86.8474L47.291 84.1632L49.7596 85.3535L52.1402 83.9942L51.771 86.7094L53.7997 88.5552L51.1034 89.0434L49.9769 91.5413L48.6779 89.128ZM35.2483 18.9695L33.299 20.8981L32.954 18.1794L30.5164 16.9236L32.9954 15.754L33.437 13.0473L35.3173 15.0432L38.0257 14.6292L36.7077 17.0305L37.9411 19.4801L35.2483 18.9695ZM24.5201 28.1417L23.7507 30.7724L22.1292 28.5626L19.3897 28.6454L20.9906 26.4201L20.066 23.8394L22.676 24.6743L24.8444 22.9975L24.8565 25.7387L27.1232 27.2826L24.5201 28.1417Z" fill="#DCDCDC"/>
<path d="M4.08324 53.4881C3.31197 53.8643 2.72167 54.5314 2.44217 55.3427C2.16267 56.154 2.21685 57.0431 2.59279 57.8145L14.6407 82.5158C15.0171 83.2867 15.6844 83.8767 16.4957 84.1558C17.307 84.435 18.1959 84.3806 18.9671 84.0045L96.5986 46.141C97.3699 45.7648 97.9602 45.0977 98.2397 44.2864C98.5192 43.4751 98.465 42.5859 98.0891 41.8145L86.0412 17.1133C85.6647 16.3423 84.9975 15.7524 84.1862 15.4732C83.3749 15.1941 82.4859 15.2485 81.7147 15.6246L4.08324 53.4881ZM3.47947 52.246L81.1075 14.3842C81.6524 14.1183 82.2444 13.9623 82.8496 13.9252C83.4548 13.888 84.0614 13.9705 84.6348 14.1679C85.2081 14.3652 85.737 14.6736 86.1911 15.0754C86.6452 15.4772 87.0158 15.9645 87.2815 16.5095L99.3294 41.209C99.5953 41.754 99.7513 42.3459 99.7885 42.9512C99.8256 43.5564 99.7431 44.163 99.5458 44.7363C99.3484 45.3097 99.04 45.8385 98.6382 46.2926C98.2364 46.7468 97.7491 47.1173 97.2041 47.3831L19.5726 85.2431C18.4727 85.7799 17.2046 85.858 16.0472 85.4601C14.8897 85.0622 13.9377 84.2209 13.4003 83.1213L1.35246 58.42C0.815886 57.3197 0.73835 56.0513 1.13691 54.8938C1.53547 53.7363 2.37748 52.7845 3.47775 52.2477L3.47947 52.246Z" fill="#DCDCDC"/>
<path d="M38.8122 55.6173L35.1299 48.0675L21.5221 54.7044L22.32 56.3402L34.184 50.5537L36.2707 54.832L26.8693 59.4173L25.6682 56.9546L23.9425 57.7963L28.5015 67.1438C29.2731 68.7256 30.4138 69.1483 31.9418 68.4031L41.8645 63.5635C42.5839 63.1681 43.054 62.6718 43.2925 62.0659C43.4683 61.4684 43.1164 59.9711 42.2274 57.601L40.2926 57.877C41.1053 59.8171 41.4516 60.9833 41.2955 61.3933C41.1491 61.7317 40.8961 61.9886 40.5725 62.1464L31.6026 66.5214C30.9195 66.8545 30.4113 66.6796 30.0782 65.9965L27.6671 61.0531L38.8122 55.6173Z" fill="#DCDCDC"/>
<path d="M52.9765 52.4028C52.5525 52.7653 52.1106 53.1366 51.6507 53.5167L46.9864 43.9535L48.0829 43.4187L48.5827 44.4434L49.3017 44.0927C50.9557 46.8908 53.0258 49.2189 55.494 51.0859C55.3137 53.043 54.8033 54.9163 53.936 56.6967L55.7532 57.4571C56.5293 55.8547 57.0292 54.1422 57.2889 52.3022C58.658 53.1475 60.1714 53.878 61.847 54.4849L62.3575 52.6116C60.592 52.0485 58.9449 51.272 57.4341 50.2731C57.4803 47.4024 56.9119 44.275 55.738 40.8645L54.9752 39.3006L47.9286 42.7374L47.4464 41.7487L38.7821 45.9746L39.5624 47.5745L40.8566 46.9432L46.082 57.6569L44.6597 58.5731L45.8885 60.0432C47.6717 58.8175 49.3654 57.5908 50.9876 56.3546L52.3378 59.1229L53.9916 58.3163L52.4748 55.2064L53.8094 54.1105L52.9765 52.4028ZM50.8656 43.3299L54.1732 41.7167C55.0249 44.2385 55.4842 46.6403 55.5691 48.9131C53.7682 47.4105 52.2123 45.5436 50.8656 43.3299ZM50.181 54.7008C49.3519 55.3277 48.5048 55.9634 47.631 56.5898L46.3422 53.9474L49.1464 52.5796L50.181 54.7008ZM45.597 52.4194L44.4397 50.0466L47.2439 48.6789L48.4012 51.0517L45.597 52.4194ZM43.6857 48.5007L42.5284 46.1279L45.3326 44.7601L46.4899 47.133L43.6857 48.5007Z" fill="#DCDCDC"/>
<path d="M66.0401 32.0124L68.381 36.812L64.6061 38.6531L70.2786 50.2835L72.0043 49.4419L70.1631 45.6669L76.0412 42.8L76.69 44.1302C76.9531 44.6695 76.8149 45.0706 76.2936 45.3249L74.3799 46.1915L75.6359 47.6261L77.6312 46.6529C78.9254 46.0217 79.2394 45.023 78.5819 43.6748L73.9176 34.1116L70.1067 35.9703L67.7658 31.1708L66.0401 32.0124ZM68.6551 42.5751L74.5332 39.7081L75.3311 41.3439L69.453 44.2109L68.6551 42.5751ZM73.8231 38.2521L67.945 41.119L67.1384 39.4653L73.0165 36.5983L73.8231 38.2521ZM63.0241 33.9952L61.9371 35.371C63.0766 35.9278 64.2059 36.6009 65.3607 37.4173L66.3845 36.0946C65.2385 35.2962 64.1184 34.5964 63.0241 33.9952ZM71.1045 30.0319C71.1544 31.3205 71.0245 32.6967 70.7237 34.1785L72.3778 34.2396C72.6962 32.7936 72.8533 31.3819 72.813 30.0219L71.1045 30.0319ZM64.0121 44.4613C64.2281 47.0485 64.274 49.6519 64.1765 52.2806L66.1003 52.2102C66.1522 49.6704 66.062 47.0219 65.8026 44.3001L64.0121 44.4613ZM58.1561 36.0135L57.5124 37.7961C59.3341 38.1092 60.815 38.4995 61.9821 38.9761L62.6083 37.1576C61.3071 36.6796 59.8348 36.3073 58.1561 36.0135ZM59.7044 40.4653L59.0607 42.2479C60.8012 42.6229 62.237 43.0574 63.3594 43.5336L63.9676 41.7238C62.7382 41.2108 61.3112 40.7942 59.7044 40.4653Z" fill="#DCDCDC"/>
</svg>
