<svg width="100" height="100" viewBox="0 0 100 100" fill="none" xmlns="http://www.w3.org/2000/svg">
<path d="M28.0548 89.1435C27.9026 89.0494 27.793 88.8999 27.7489 88.7264C27.7049 88.553 27.73 88.3693 27.8188 88.214C27.9076 88.0587 28.0533 87.944 28.2251 87.8941C28.3969 87.8441 28.5814 87.8629 28.7396 87.9463C35.3023 91.7 42.734 93.6686 50.2943 93.6563C72.4218 93.6563 90.9542 77.0404 93.4814 55.2407C93.5088 55.0644 93.6036 54.9055 93.7457 54.7975C93.8878 54.6895 94.0662 54.6408 94.2435 54.6615C94.4208 54.6823 94.5831 54.7709 94.6964 54.9089C94.8097 55.0468 94.8651 55.2232 94.8511 55.4012C92.2428 77.8926 73.1256 95.0363 50.2943 95.0363C42.4937 95.0484 34.8259 93.0167 28.0548 89.1435ZM70.9348 10.3424C71.092 10.4294 71.2091 10.5744 71.2611 10.7465C71.3132 10.9185 71.296 11.1041 71.2133 11.2637C71.1305 11.4233 70.9888 11.5443 70.8183 11.601C70.6477 11.6577 70.4617 11.6455 70.2999 11.5672C64.1199 8.35957 57.2572 6.6902 50.2943 6.70079C28.4412 6.70079 10.0606 22.9164 7.20042 44.378C7.17617 44.5594 7.08085 44.7237 6.93543 44.8349C6.79002 44.946 6.60641 44.9948 6.425 44.9706C6.2436 44.9463 6.07925 44.851 5.96813 44.7056C5.857 44.5602 5.80819 44.3765 5.83244 44.1951C8.78403 22.0504 27.7477 5.32074 50.2943 5.32074C57.5776 5.32074 64.6124 7.05788 70.9348 10.3407V10.3424Z" fill="#10AEFF"/>
<path d="M49.3128 77.3699C49.2221 77.37 49.1324 77.3521 49.0486 77.3175C48.9649 77.2828 48.8888 77.232 48.8247 77.1679C48.7606 77.1038 48.7097 77.0278 48.675 76.944C48.6403 76.8603 48.6225 76.7705 48.6225 76.6799C48.6225 76.5893 48.6403 76.4995 48.675 76.4158C48.7097 76.332 48.7606 76.256 48.8247 76.1919C48.8888 76.1278 48.9649 76.077 49.0486 76.0423C49.1324 76.0077 49.2221 75.9898 49.3128 75.9899C58.9731 75.9899 67.7365 70.8336 72.4977 62.6309C72.5432 62.5525 72.6038 62.4837 72.6759 62.4286C72.748 62.3735 72.8302 62.3331 72.9179 62.3098C73.0056 62.2865 73.0971 62.2807 73.187 62.2928C73.277 62.3048 73.3636 62.3344 73.4421 62.38C73.5206 62.4255 73.5894 62.486 73.6445 62.5581C73.6996 62.6302 73.7399 62.7125 73.7633 62.8002C73.7866 62.8879 73.7924 62.9793 73.7803 63.0693C73.7683 63.1592 73.7387 63.2459 73.6931 63.3244C71.2181 67.5981 67.6625 71.1456 63.3832 73.6109C59.1039 76.0762 54.2514 77.3726 49.3128 77.3699ZM53.6375 21.3553C53.8124 21.3895 53.9674 21.49 54.0698 21.6359C54.1722 21.7818 54.2143 21.9616 54.187 22.1378C54.1598 22.3139 54.0655 22.4727 53.9239 22.5809C53.7822 22.6891 53.6042 22.7382 53.4271 22.7181C52.0746 22.5111 50.7014 22.4041 49.3128 22.4041C44.3481 22.4028 39.4808 23.7811 35.254 26.3852C31.0272 28.9894 27.6072 32.7169 25.3757 37.1517C25.3349 37.2327 25.2786 37.3049 25.21 37.3641C25.1413 37.4233 25.0616 37.4684 24.9755 37.4968C24.8894 37.5253 24.7986 37.5365 24.7081 37.5298C24.6177 37.5231 24.5295 37.4987 24.4485 37.4579C24.3675 37.4171 24.2953 37.3608 24.2361 37.2921C24.1769 37.2235 24.1318 37.1438 24.1034 37.0577C24.0749 36.9716 24.0637 36.8807 24.0704 36.7903C24.0771 36.6999 24.1015 36.6117 24.1423 36.5307C26.4889 31.8675 30.0851 27.9481 34.5297 25.2099C38.9743 22.4718 44.0924 21.0226 49.3128 21.024C50.7704 21.024 52.2161 21.1362 53.6375 21.3553ZM49.4214 16.1973L47.0167 17.5135L47.4324 14.8052L45.4365 12.9249L48.1432 12.485L49.3128 10.006L50.5686 12.4418L53.2873 12.7886L51.3587 14.7362L51.8693 17.429L49.4214 16.1973ZM74.9404 75.0859L72.5356 76.4039L72.9514 73.6955L70.9555 71.8152L73.6621 71.3753L74.8317 68.8964L76.0875 71.3322L78.8062 71.6789L76.8776 73.6265L77.3882 76.3194L74.9404 75.0859ZM63.241 85.5588L60.5895 86.2558L61.6487 83.7268L60.1652 81.4221L62.8977 81.6464L64.6331 79.5245L65.2627 82.1932L67.8158 83.1869L65.4732 84.61L65.3179 87.3477L63.241 85.5588ZM48.6779 89.128L45.9523 88.8278L47.8482 86.8475L47.291 84.1632L49.7596 85.3535L52.1401 83.9942L51.771 86.7094L53.7997 88.5553L51.1034 89.0435L49.9769 91.5414L48.6779 89.128ZM35.2483 18.9695L33.299 20.8981L32.9539 18.1794L30.5164 16.9236L32.9953 15.754L33.437 13.0473L35.3173 15.0432L38.0256 14.6292L36.7077 17.0305L37.9411 19.4801L35.2483 18.9695ZM24.5201 28.1417L23.7507 30.7724L22.1291 28.5626L19.3897 28.6454L20.9906 26.4201L20.066 23.8394L22.676 24.6743L24.8444 22.9975L24.8565 25.7387L27.1232 27.2826L24.5201 28.1417Z" fill="#10AEFF"/>
<path d="M4.08324 53.4881C3.31197 53.8643 2.72167 54.5314 2.44217 55.3427C2.16267 56.154 2.21685 57.0431 2.59279 57.8145L14.6407 82.5158C15.0171 83.2867 15.6844 83.8767 16.4957 84.1558C17.307 84.435 18.1959 84.3806 18.9671 84.0045L96.5986 46.141C97.3699 45.7648 97.9602 45.0977 98.2397 44.2864C98.5192 43.4751 98.465 42.5859 98.0891 41.8145L86.0412 17.1133C85.6647 16.3423 84.9975 15.7524 84.1862 15.4732C83.3749 15.1941 82.4859 15.2485 81.7147 15.6246L4.08324 53.4881ZM3.47947 52.246L81.1075 14.3842C81.6524 14.1183 82.2444 13.9623 82.8496 13.9252C83.4548 13.888 84.0614 13.9705 84.6348 14.1679C85.2081 14.3652 85.737 14.6736 86.1911 15.0754C86.6452 15.4772 87.0158 15.9645 87.2815 16.5095L99.3294 41.209C99.5953 41.754 99.7513 42.3459 99.7885 42.9512C99.8256 43.5564 99.7431 44.163 99.5458 44.7363C99.3484 45.3097 99.04 45.8385 98.6382 46.2926C98.2364 46.7468 97.7491 47.1173 97.2041 47.3831L19.5726 85.2431C18.4727 85.7799 17.2046 85.858 16.0472 85.4601C14.8897 85.0622 13.9377 84.2209 13.4003 83.1213L1.35246 58.42C0.815886 57.3197 0.73835 56.0513 1.13691 54.8938C1.53547 53.7363 2.37748 52.7845 3.47775 52.2477L3.47947 52.246Z" fill="#10AEFF"/>
<path d="M28.1012 63.0707L31.7144 61.3085L32.5298 62.9802L28.9166 64.7425L28.1012 63.0707ZM33.2925 64.5441L35.0285 68.1034L36.7182 67.2792L34.9823 63.72L38.6493 61.9314L39.0965 62.8482L40.7682 62.0328L36.4196 53.1168L31.0808 55.7207L30.318 54.1568L28.6283 54.981L29.391 56.5449L24.1061 59.1225L28.4811 68.0925L30.1528 67.2771L29.6794 66.3064L33.2925 64.5441ZM34.2195 62.1561L33.4041 60.4843L37.0712 58.6958L37.8866 60.3675L34.2195 62.1561ZM36.3435 57.2038L32.6764 58.9923L31.8523 57.3026L35.5194 55.5141L36.3435 57.2038ZM30.1626 58.1267L30.9867 59.8165L27.3735 61.5787L26.5494 59.889L30.1626 58.1267ZM35.9187 48.5769L29.0879 51.9085C28.6986 51.4753 28.3089 51.0869 27.9634 50.7436L26.2881 51.9167C26.6345 52.1706 26.9716 52.4512 27.3263 52.7677L20.6033 56.0467L22.3042 59.5341L23.9579 58.7275L23.0198 56.804L35.0277 50.9474L35.922 52.7809L37.5758 51.9743L35.9187 48.5769Z" fill="#10AEFF"/>
<path d="M45.4271 52.1949C46.2004 52.6855 47.1513 53.3121 48.253 54.0654L48.4956 52.1446C47.0984 51.4242 45.7717 50.8029 44.4977 50.2894L44.0243 49.3187L46.0016 48.3543L45.2038 46.7185L43.2264 47.6829L41.5869 44.3214L39.9511 45.1193L41.5906 48.4808L39.2538 49.6205L40.0516 51.2563L42.2986 50.1604C42.8114 52.5805 42.9134 54.934 42.5511 57.2024L44.1114 58.6221C44.2711 56.9421 44.2168 55.1884 43.9841 53.3882L48.0347 61.6931L49.6705 60.8952L45.4271 52.1949ZM44.7913 45.006L45.5541 46.5699L48.7178 45.0268C48.5437 47.2703 48.2428 48.7521 47.7973 49.4812C47.7517 49.5702 47.6702 49.6767 47.5439 49.7828L48.5605 51.0004C49.8105 50.3239 51.0066 49.6738 52.122 49.0408C51.4392 51.154 50.2755 53.0567 48.6221 54.7309L50.2495 55.6951C53.0876 52.7087 54.5285 49.0019 54.5814 44.548L52.8377 44.4861C52.8114 45.3445 52.7316 46.1845 52.607 47.0241C51.6801 47.5874 50.7445 48.1328 49.7913 48.6422C50.1145 47.6167 50.3439 46.1252 50.4795 44.1676L55.4049 41.7654L54.6421 40.2015L50.7234 42.1128C50.1745 41.5349 49.634 41.0197 49.1193 40.6032L47.5159 41.7412C48.0314 42.0683 48.5374 42.4669 49.0516 42.9281L44.7913 45.006ZM56.1302 53.4722C57.958 54.0716 59.5078 54.7399 60.7708 55.459L61.4154 53.5869C60.0086 52.938 58.4307 52.3947 56.6823 51.9123C57.2181 50.1823 57.5138 48.3247 57.5866 46.3755L55.8071 46.3311C55.6156 51.2309 53.7771 55.3542 50.273 58.7544L51.9179 59.7546C53.7612 57.8765 55.1682 55.7883 56.1302 53.4722Z" fill="#10AEFF"/>
<path d="M62.7367 33.8948L64.2534 37.0046L57.872 40.117L62.1066 48.7994L63.8144 47.9665L63.3146 46.9419L67.9883 44.6623L70.9254 50.6843L72.6871 49.825L69.75 43.8031L74.4417 41.5148L74.9414 42.5394L76.6491 41.7065L72.4145 33.0242L66.0151 36.1454L64.4983 33.0356L62.7367 33.8948ZM62.4992 45.2701L60.3951 40.9559L65.0688 38.6764L67.173 42.9906L62.4992 45.2701ZM68.9346 42.1314L66.8304 37.8171L71.5221 35.5289L73.6263 39.8431L68.9346 42.1314Z" fill="#10AEFF"/>
</svg>
