<?xml version="1.0" encoding="UTF-8"?>
<svg width="550px" height="340px" viewBox="0 0 550 340" version="1.1" xmlns="http://www.w3.org/2000/svg" xmlns:xlink="http://www.w3.org/1999/xlink">
    <title>手持身份证</title>
    <defs>
        <path d="M67.1293801,77 C94.6238436,77 116.862837,68.1260803 133.846361,50.3782409 C118.131291,46.3081201 109.427619,42.0338971 107.735344,37.5555722 C106.043069,33.0772472 104.791917,20.8894313 103.981888,0.992124454 L25.1392695,0 C26.7953065,19.6820498 26.5026866,32.0092204 24.2614097,36.981512 C22.0201328,41.9538036 14.0704625,46.8341017 0.412398922,51.6224063 C17.3959228,68.5408021 39.6349165,77 67.1293801,77 Z" id="path-1"></path>
        <path d="M30.0788018,0 C37.8820195,7.1571865 47.0639359,12.6220209 57.6245508,16.3945031 C74.9959208,22.5999357 96.6208306,19.3538316 106.468541,20.8606702 C119.996976,22.9307114 118.38828,34.9302881 118.353687,36.761451 C118.32519,38.2699057 118.287682,39.7409565 118.241434,41.1758474 C123.208929,38.0995387 127.663032,38.6972233 131.604274,42.9659172 C138.146444,50.0516335 129.806791,67.6372264 116.63578,69.4814703 C116.253821,69.5349534 115.888477,69.5689533 115.539748,69.58347 C112.256385,87.5541672 106.52802,95.8013329 100.29707,103.277765 L99.6774554,104.017135 C98.745771,105.123369 97.8043821,106.219095 96.8596814,107.333793 C77.9848099,129.605182 58.9179654,129.742187 36.9806133,105.169809 C27.9774828,95.0852593 22.9666702,85.4034969 19.8454013,69.5105498 C19.0872121,69.627556 18.2208116,69.6179322 17.2462438,69.4814703 C4.07523329,67.6372264 -4.26441931,50.0516335 2.27775074,42.9659172 C6.42718267,38.471736 11.1450892,38.0466384 16.4314703,41.6906243 C16.2854391,39.7928228 16.1454255,37.8322155 16.0101174,35.8060827 C15.9954198,35.5859977 15.9698927,34.9381946 15.9673327,33.9653489 L15.9676137,33.5591183 C15.9826089,29.7514038 16.3536583,21.9085589 18.6575779,14.8210038 C20.677063,8.60845554 24.4841376,3.66812093 30.0788018,0 Z" id="path-3"></path>
    </defs>
    <g id="星际云二期" stroke="none" stroke-width="1" fill="none" fill-rule="evenodd">
        <g id="我的_设置_提交认证" transform="translate(-100.000000, -228.000000)">
            <g id="手持身份证" transform="translate(100.000000, 228.000000)">
                <rect id="矩形" fill="#F6F9FC" x="0" y="0" width="550" height="340" rx="12"></rect>
                <g id="Head-Copy" transform="translate(203.000000, 18.000000)">
                    <path d="M119.817243,84.1291934 L124.477655,61.288825 C128.78512,44.6143618 125.29467,30.6800442 114.006307,19.4858723 C89.4398542,-4.87559502 50.7715128,-2.13718447 38.5856442,5.00161699 C28.8584807,10.7000445 24.5030494,18.029194 25.5193503,26.9890654 C1.88854183,28.4378102 -3.73441795,41.0627181 8.65047101,64.8637892 L16.51018,85 L119.817243,84.1291934 Z" id="发型" fill="#9499AD"></path>
                    <g id="Path-4" transform="translate(5.262195, 132.000000)">
                        <mask id="mask-2" fill="white">
                            <use xlink:href="#path-1"></use>
                        </mask>
                        <use id="Mask" fill="#FEE9E8" xlink:href="#path-1"></use>
                        <path d="M99.680271,1.58872401 C89.6182642,31.603135 61.9012246,47.4433268 16.5291523,49.1092995 L18.5990044,-3.29509364 L99.680271,1.58872401 Z" fill="#F5DDDD" mask="url(#mask-2)"></path>
                    </g>
                    <g id="Path-21" transform="translate(0.262195, 44.000000)">
                        <mask id="mask-4" fill="white">
                            <use xlink:href="#path-3"></use>
                        </mask>
                        <use id="Mask" fill="#FFEEEE" xlink:href="#path-3"></use>
                        <path d="M16.4705832,50.4655927 L20.8106751,78.2938379 L6.19461771,64.3797153 C11.3209826,66.7189036 14.5523222,66.9837827 15.8886364,65.1743528 C17.2249506,63.3649228 17.4189329,58.4620028 16.4705832,50.4655927 Z" fill="#E9D0D0" mask="url(#mask-4)"></path>
                        <path d="M124.444438,50.4655927 L128.78453,78.2938379 L114.168473,64.3797153 C119.294838,66.7189036 122.526177,66.9837827 123.862491,65.1743528 C125.198806,63.3649228 125.392788,58.4620028 124.444438,50.4655927 Z" id="Path-21-Copy" fill="#E9D0D0" mask="url(#mask-4)" transform="translate(121.476501, 64.379715) scale(-1, 1) translate(-121.476501, -64.379715) "></path>
                    </g>
                </g>
                <g id="人像" transform="translate(115.000000, 180.000000)">
                    <path d="M205.49444,14.2405174 C204.652941,14.0625739 203.848686,13.7371178 203.118021,13.2788572 L158.787239,39.2285763 L116.195846,12 C115.088509,12.9566253 113.665146,13.7622046 112.239295,14.2405174 L57.618994,27.215377 C49.7009164,29.1386971 44,36.1849975 44,44.5101551 L44,79.2734138 C44,84.2377956 45.1098246,160 50.0169429,160 L270.090722,160 C275.000328,160 273.892992,84.2377956 273.892992,79.2734138 L273.892992,44.5126722 C273.892992,36.346113 268.194564,29.1386971 260.276487,27.215377 L205.49444,14.2405174 Z" id="路径" fill="#EDF1F6" fill-rule="nonzero"></path>
                    <polygon id="路径" fill="#F9E3E2" fill-rule="nonzero" points="297 120 317.717761 120 319 160 308.239789 160"></polygon>
                    <path d="M7,112 C30.1615203,113.460338 46.5476827,117.191462 56,123.190825 L56,160 L7,160 L7,112 Z" id="路径" fill="#FFEEEE" fill-rule="nonzero"></path>
                    <path d="M49.9781719,31.5331467 C49.9781719,31.5331467 40.1418862,36.4879294 35.2212498,41.4376924 C31.8892828,44.7935916 25.3824704,55.8100765 15.5436911,74.3365468 C10.6255483,88.8670625 0.312911626,116.017967 0.312911626,123.520422 C35.7025896,133.424968 54.5820722,138.374731 57.1209509,138.374731 C61.2484998,130.071579 71.0872791,108.671134 86.7993981,74.3340368 C86.7768737,68.0599447 84.1253201,62.0865798 79.4970038,57.8833547 L49.9781719,31.5381668 L49.9781719,31.5331467 Z M271.46843,31.5331467 C271.46843,31.5331467 281.238317,36.4746004 286.122022,41.4160538 C289.430658,44.7646213 295.889432,55.7570385 305.661796,74.2430338 C310.545502,88.744309 320.312912,110.894443 320.312912,118.222722 C284.385978,133.044578 265.1632,140.533147 262.800596,140.533147 C258.701948,132.248135 249.405078,114.240506 234.907506,86.3549796 L234.907506,74.2405292 C234.930878,67.9810846 237.563752,62.0219355 242.158768,57.8282917 C261.854563,40.3015342 271.465953,31.5381558 271.465953,31.5381558 L271.46843,31.5381558 L271.46843,31.5331467 Z" id="形状" fill="#E3E9F0" fill-rule="nonzero"></path>
                    <polyline id="路径" fill="#C7CDE5" fill-rule="nonzero" points="170 160 148 160 150.691542 47 167.308458 47 170 108.681701"></polyline>
                    <polygon id="路径" fill="#C7CDE5" fill-rule="nonzero" points="140 60 178 60 178 31 140 31"></polygon>
                    <path d="M199.656726,1.70005432 L159.313071,38.0087546 C159.313071,38.0087546 170.547132,43.7398633 184.628249,55.2045831 C187.477791,57.5971334 191.903782,56.6411143 193.33104,53.2950477 L212.313071,11.7357511 L206.303172,2.81874694 C204.721751,0.26852859 201.556421,-0.209480756 199.656726,1.70255703 M118.967524,1.70745749 L159.313071,38.0104103 C159.313071,38.0104103 148.08097,43.7410068 133.999193,55.204702 C131.152003,57.5970384 126.720831,56.6411047 125.29848,53.2953371 L106.313071,11.7347499 L112.325739,2.81854268 C113.909721,0.268552246 117.0752,-0.209414379 118.97001,1.70245292" id="形状" fill="#E3E9F0" fill-rule="nonzero"></path>
                    <rect id="矩形" fill="#FFFFFF" x="8" y="18" width="204" height="101" rx="8"></rect>
                    <text id="xx-年-xx-月-xx-日" font-family="PingFang-SC-Medium, PingFang SC" font-size="18" font-weight="400" fill="#323232">
                        <tspan x="13" y="42">xx 年 xx 月 xx 日</tspan>
                    </text>
                    <text id="星际云" font-family="PingFang-SC-Medium, PingFang SC" font-size="16" font-weight="400" fill="#323232">
                        <tspan x="13" y="70">星际云</tspan>
                    </text>
                    <path d="M186.3469,79 C184.017157,79 182,80.8927625 182,83.4214132 L182,137 L221,137 L221,83.4214132 C221,81.0517343 219.13181,79 216.645773,79 L186.3469,79 Z" id="路径" fill="#E3E9F0" fill-rule="nonzero"></path>
                    <path d="M265.862673,135.534135 C260.419042,135.534135 243.927079,124.731826 227.4326,122.036241 C210.940637,119.335664 194.607227,119.335664 191.725602,116.637582 C189.002528,113.937005 199.892306,105.835273 221.825383,108.538347 C243.76601,111.238924 241.04042,95.0354608 246.489084,86.7789828 C250.171023,81.3803243 261.060802,87.7324214 279.314457,105.835274 C274.029378,125.687761 269.544611,135.531639 265.862673,135.531639 M236.226986,71.1599018 C233.669864,66.0996707 205.092336,53.2900281 202.537724,48.0707326 C199.980602,43.012987 194.713283,32.7309747 215.46888,43.012987 C236.226986,53.2900285 256.982583,68.6297861 259.539704,71.1599018 C262.252411,73.692503 238.942202,76.3791972 236.226986,71.1599018" id="形状" fill="#FEE9E8" fill-rule="nonzero"></path>
                    <path d="M321,160 C292.732573,74.3769104 288.923095,73.453311 275.948788,58.4040748 C266.231859,55.1986417 217.150331,55.1986417 213.948161,58.4040748 C210.690782,61.6095079 210.690782,87.3073004 220.46292,96.9235995 C230.179848,106.485569 243.374994,96.9235995 246.632374,93.7181665 C249.889753,90.5127334 230.235058,90.5127334 230.235058,87.3073008 C230.235058,84.1018681 233.492437,84.1018677 236.749816,84.1018677 L246.466744,84.1018677 C246.466744,84.1018677 256.183673,100.074703 256.183673,109.85399 C256.183673,119.415959 260.379619,157.555178 262.091123,160 L321,160 L321,160 Z" id="路径" fill="#FFEEEE" fill-rule="nonzero"></path>
                    <polygon id="路径" fill="#E3E9F0" fill-rule="nonzero" points="180 101 201 101 201 78 180 78"></polygon>
                    <polygon id="路径" fill="#E3E9F0" fill-rule="nonzero" points="175 100 196 100 196 83 175 83"></polygon>
                    <path d="M102.922241,51 L208.077937,51 C210.273305,51 212,52.7561938 212,54.9890685 L212,115.01075 C212,117.246134 210.273305,119 208.077937,119 L102.922241,119 C101.879017,119.009973 100.875614,118.592959 100.137909,117.842651 C99.4002038,117.092343 98.9901944,116.071797 99,115.01075 L99,54.9890685 C99,52.7561938 100.726873,51 102.922241,51" id="路径" fill="#F6F9FC" fill-rule="nonzero"></path>
                    <path d="M132.927093,106.513383 L135.080939,106.513383 L135.080939,106.024467 L132.927093,106.024467 L132.927093,106.513383 Z M132.927093,107.355882 L135.080939,107.355882 L135.080939,106.268925 L132.927093,106.268925 L132.927093,107.355882 Z M131.85017,107.79112 L131.85017,107.355882 L136.157862,107.355882 L136.157862,107.79112 L133.399855,107.79112 L133.229173,108.226358 L135.469715,108.226358 C135.469715,108.950996 135.296323,109.240396 135.296324,109.386234 C135.125641,109.529795 134.95225,109.529795 134.608176,109.529795 L133.91732,109.529795 L133.743928,109.240395 L134.434785,109.240395 C134.608177,109.240395 134.778859,109.240395 134.95225,109.096835 C134.95225,108.950996 135.125641,108.807435 135.125641,108.518036 L132.711708,108.518036 L132.885099,107.79112 L131.85017,107.79112 Z M129.696324,106.788477 L129.696324,106.268925 L131.72277,106.268925 L131.72277,106.788477 L131.089754,106.788477 L131.089754,108.008056 L131.72277,108.008056 L131.72277,108.530341 L131.089754,108.530341 L131.089754,110.094465 L131.85017,110.094465 L131.85017,110.616751 L129.696324,110.616751 L129.696324,110.094465 L130.078522,110.094465 L130.078522,107.658042 L130.456739,107.658042 L130.456739,110.094465 L130.836946,110.094465 L130.836946,106.963483 L129.696324,106.963483 L129.696324,106.788477 L129.696324,106.788477 Z M128.6194,106.993563 L128.312743,107.355882 C128.158207,107.176149 127.849135,106.810977 127.542477,106.631244 L127.849135,106.268925 C128.158207,106.451511 128.312743,106.631244 128.6194,106.993563 Z M128.261681,107.355882 L128.261681,108.852849 C128.380294,108.716179 128.500789,108.716179 128.500789,108.581644 L128.6194,108.987384 C128.380293,109.25859 128.261681,109.39526 128.020692,109.529795 L127.900197,109.258589 L128.020692,109.124054 L128.020692,107.765893 L127.542477,107.765893 L127.542477,107.355882 L128.261681,107.355882 Z M126.465554,108.045323 L126.226864,108.442838 C125.882343,107.866861 125.598971,107.199143 125.388631,106.467683 L125.6292,106.268925 C125.86789,106.858987 126.10658,107.452155 126.465554,108.045323 L126.465554,108.045323 Z M124.740671,107.536685 L124.740671,107.175078 L124.598436,107.357305 L124.311708,106.992851 C124.740671,106.449017 125.029657,105.905183 125.17415,105.181969 L125.460877,105.364196 C125.342251,105.979349 125.093314,106.542289 124.740671,106.992851 L126.465554,106.992851 L126.465554,108.985961 C126.465554,109.347568 126.323319,109.529795 125.889841,109.529795 L125.460877,109.529795 L125.316385,108.985961 L125.747606,108.985961 C125.889841,108.985961 125.889841,108.806581 126.036591,108.624354 L126.036591,107.175078 L125.603113,107.175078 C125.460877,107.718912 125.460877,108.08052 125.316385,108.444974 C125.154611,108.830163 124.904371,109.144761 124.598436,109.347567 L124.311708,108.985961 C124.598436,108.806581 124.740671,108.444974 124.885164,108.262746 C125.029657,108.080519 125.029657,107.718912 125.17415,107.175078 L124.740671,107.536685 Z M124.311708,105.350204 L123.989986,106.351729 L123.989986,109.529795 L123.664877,109.529795 L123.664877,107.02204 L123.343154,107.524117 L123.234785,107.02204 C123.558201,106.519964 123.773247,105.849652 123.881616,105.181969 L124.311708,105.350204 Z M120.004016,108.605384 L122.157862,108.605384 L122.157862,108.280293 L120.004016,108.280293 L120.004016,108.605384 Z M120.004016,107.518427 L122.157862,107.518427 L122.157862,107.193336 L120.004016,107.193336 L120.004016,107.518427 Z M120.004016,106.431471 L122.157862,106.431471 L122.157862,106.10638 L120.004016,106.10638 L120.004016,106.431471 Z M121.080939,105.181969 C121.080939,105.350204 121.080939,105.350204 120.903331,105.518439 L122.338289,105.518439 L122.338289,107.524117 C122.515897,107.355881 122.696324,107.02204 122.87675,106.853805 L123.234785,107.02204 C123.089051,107.453585 122.767006,107.814303 122.338289,108.026193 L122.338289,109.027718 C122.338289,109.36156 122.157862,109.529795 121.797008,109.529795 L121.261366,109.529795 L121.080939,109.027718 L121.6194,109.027718 C121.797008,109.027718 121.797008,109.027718 121.797008,108.862111 L121.797008,108.52827 L121.6194,108.693877 C120.903331,109.027718 120.184442,109.36156 119.107519,109.529795 L118.927093,109.195953 C120.184442,109.027718 121.080939,108.693877 121.6194,108.360035 L118.927093,108.360035 L118.927093,108.026193 L119.468373,108.026193 L119.468373,105.849652 L120.545297,105.849652 C120.545297,105.684045 120.722904,105.518439 120.722904,105.518439 L121.080939,105.181969 L121.080939,105.181969 Z M115.696324,107.111424 L115.696324,107.60034 L116.773247,107.60034 C116.773247,107.439074 116.773247,107.275249 116.637838,107.111424 L115.696324,107.111424 L115.696324,107.111424 Z M115.696324,107.355882 L117.85017,107.355882 L117.85017,106.268925 L115.696324,106.268925 L115.696324,107.355882 Z M115.116842,109.893063 C115.447602,109.710716 115.945044,109.710716 116.275804,109.531219 L116.442487,110.07256 C115.897404,110.278718 115.344802,110.460269 114.786083,110.616751 L114.6194,110.07256 L114.786083,109.893063 L114.786083,106.268925 L118.098891,106.268925 L118.098891,107.898648 L116.939929,107.898648 L116.939929,108.442838 L118.42965,108.442838 L118.42965,108.987028 L117.106611,108.987028 C117.106611,109.169375 117.106611,109.169375 117.270689,109.169375 C117.437371,109.531219 117.601449,109.710716 117.768131,109.893063 C117.934813,110.07256 118.098891,110.07256 118.265573,110.07256 C118.265573,110.07256 118.429651,110.07256 118.42965,109.893063 C118.42965,109.710716 118.42965,109.531219 118.596333,109.348873 L118.927093,109.531219 C118.927093,109.893063 118.763015,110.254907 118.763015,110.434405 C118.763015,110.616751 118.596333,110.616751 118.42965,110.616751 C118.18128,110.57038 117.951063,110.444454 117.768131,110.254907 C117.601448,110.07256 117.270689,109.710717 117.106611,109.348873 C117.106611,109.169375 116.939929,108.987028 116.939929,108.987028 L115.61168,108.987028 L115.61168,109.893063 L115.116842,109.893063 L115.116842,109.893063 Z M113.542477,108.132628 L113.327431,108.442838 C112.883953,107.938275 112.578623,107.223522 112.465554,106.425252 L112.6806,106.268925 C112.78897,106.889345 113.112385,107.509765 113.542477,108.132628 L113.542477,108.132628 Z M113.542477,110.423872 L113.078522,110.616751 C113.078522,110.423872 112.926287,110.234006 112.926287,110.041126 C112.157862,110.234006 111.389436,110.234006 110.46636,110.423872 L110.311708,109.85126 C110.621012,109.658381 111.08255,108.89289 111.544088,107.355882 L112.00321,107.548761 C111.696323,108.507131 111.237202,109.08577 110.925482,109.85126 C111.544088,109.85126 112.157862,109.658381 112.6194,109.658381 C112.464749,109.275636 112.312513,109.08577 112.157862,108.700011 L112.464749,108.507131 C113.078522,109.08577 113.387826,109.658381 113.542477,110.423872 L113.542477,110.423872 Z M111.388631,106.425252 C111.217174,107.187816 110.921479,107.879744 110.526417,108.442838 L110.311708,108.132628 C110.634616,107.666092 110.955833,107.045671 111.065723,106.268925 L111.388631,106.425252 L111.388631,106.425252 Z M118.166678,88.8776208 L118.166678,90.2685971 L118.799693,90.2685971 L118.799693,90.7905551 L118.166678,90.7905551 L118.166678,92.7034889 L118.927093,92.7034889 L118.927093,93.2254469 L116.773247,93.2254469 L116.773247,92.7034889 L117.153454,92.7034889 L117.153454,89.9215364 L117.533662,89.9215364 L117.533662,92.7034889 L117.91387,92.7034889 L117.91387,88.8776208 L118.166678,88.8776208 Z M116.773247,92.7997286 L115.804523,93.2254469 L115.696324,92.8019575 C115.804523,92.8019575 115.911032,92.8019575 116.019232,92.6593083 L116.019232,91.3843819 L115.696324,91.3843819 L115.696324,90.9564346 L116.019232,90.9564346 L116.019232,89.9645773 L116.342139,89.9645773 L116.342139,90.9564346 L116.665047,90.9564346 L116.665047,91.3843819 L116.342139,91.3843819 L116.342139,92.5166591 C116.450339,92.5166591 116.556848,92.3740099 116.665047,92.3740099 L116.665047,92.8019575 L116.773247,92.7997286 Z M113.721181,89.713539 C113.721181,89.5479325 113.540596,89.2114625 113.540596,89.0432273 L114.079528,88.8776208 C114.260113,89.2114625 114.260113,89.3796973 114.260113,89.713539 L115.515739,89.713539 L115.515739,90.2156155 L114.260113,90.2156155 L114.260113,91.2197689 L115.337976,91.2197689 L115.337976,91.7192166 L114.260113,91.7192166 L114.260113,92.72337 L115.696324,92.72337 L115.696324,93.2254469 L112.465554,93.2254469 L112.465554,92.72337 L113.901766,92.72337 L113.901766,91.7192166 L112.823902,91.7192166 L112.823902,91.2197689 L113.901766,91.2197689 L113.901766,90.2156155 L112.643317,90.2156155 L112.643317,89.713539 L113.721181,89.713539 Z M112.465554,89.049785 L112.142647,90.0937006 L112.142647,93.2254469 L111.821429,93.2254469 L111.821429,90.7905551 L111.498521,91.3125127 L111.388631,90.7905551 C111.706674,90.2582924 111.930319,89.5975783 112.036138,88.8776208 L112.465554,89.049785 L112.465554,89.049785 Z M116.026884,82.3558819 L115.696324,82.0220402 C116.193465,81.5199637 116.360046,81.0178868 116.526628,80.1819686 L117.021167,80.3475751 C117.021167,80.5158103 116.857188,80.8496516 116.857188,81.0178868 L117.68489,81.0178868 L117.68489,80.1819686 L118.182031,80.1819686 L118.182031,81.0178868 L119.670853,81.0178868 L119.670853,81.5199637 L118.182031,81.5199637 L118.182031,82.5241167 L119.504272,82.5241167 L119.504272,83.0235649 L118.182031,83.0235649 L118.182031,84.0277178 L120.004016,84.0277178 L120.004016,84.5297947 L116.026884,84.5297947 L116.026884,84.0277178 L117.851471,84.0277178 L117.851471,83.0235649 L116.526628,83.0235649 L116.526628,82.5241167 L117.851471,82.5241167 L117.851471,81.5199637 L116.857188,81.5199637 C116.526628,81.8538054 116.360047,82.1902754 116.026884,82.3558819 Z M113.917155,80.5158103 L114.338944,80.5158103 L114.338944,82.1902754 L113.21491,82.1902754 L113.21491,83.8621118 L114.19982,83.8621118 L114.19982,82.6897232 L114.6194,82.6897232 L114.6194,84.5297947 L114.19982,84.5297947 L114.19982,84.3615595 L111.81042,84.3615595 L111.81042,84.5297947 L111.388631,84.5297947 L111.388631,82.6897232 L111.81042,82.6897232 L111.81042,83.8621118 L112.793121,83.8621118 L112.793121,82.1902754 L111.669088,82.1902754 L111.669088,80.5158103 L112.090876,80.5158103 L112.090876,81.6855698 L112.932245,81.6855698 L112.932245,80.1819686 L113.356243,80.1819686 L113.356243,81.6855698 L114.19982,81.6855698 L113.917155,80.5158103 L113.917155,80.5158103 Z M152.600694,71.8505327 L152.456201,71.4863166 C152.600694,71.3070541 152.742929,70.763576 152.885164,70.3993599 L153.17415,70.3993599 C153.17415,70.581468 153.17415,70.581468 153.029657,70.763576 L154.036591,70.763576 L154.036591,71.1249461 L153.460877,71.1249461 L153.460877,71.6684246 L154.323319,71.6684246 L154.323319,72.2119027 L153.603113,72.2119027 C153.729529,72.7316437 154.052838,73.1380506 154.465554,73.2960139 L154.323319,73.6602295 C153.892098,73.4781215 153.603113,72.9346434 153.460877,72.3911653 C153.316385,72.9346434 153.029657,73.2960139 152.600694,73.6602295 L152.311708,73.2960139 C152.742929,72.9346434 152.885164,72.5732733 153.029657,72.2119027 L153.029657,72.0297947 L152.311708,72.0297947 L152.311708,71.4863166 L153.029657,71.4863166 L153.029657,70.945684 L152.742929,70.945684 C152.885164,71.4863166 152.742929,71.6684246 152.600694,71.8505327 L152.600694,71.8505327 Z M152.621127,71.4863165 L152.311708,71.2675578 C152.466418,71.0505082 152.775836,70.7240795 152.775837,70.3993599 L153.080421,70.5070299 C153.080421,70.6164093 152.928129,70.7240795 152.928129,70.7240795 L154.465554,70.7240795 L154.465554,71.0505082 L152.928129,71.0505082 C152.775836,71.1581785 152.775836,71.3769369 152.621127,71.4863165 L152.621127,71.4863165 Z M151.664877,71.0425444 C151.556507,70.8804821 151.556507,70.720952 151.556507,70.5588896 L151.881616,70.3993599 C151.988293,70.55889 151.988293,70.7209524 151.988293,71.0425444 L152.311708,71.0425444 L152.311708,71.5236665 L151.773247,71.5236665 L151.773247,72.0098536 L152.311708,72.0098536 L152.311708,74.1014693 C152.311708,74.2635317 152.203338,74.5851237 151.881616,74.5851237 L151.773247,74.5851237 L151.664877,74.2635317 L151.881616,74.2635317 C151.988293,74.2635317 151.988293,74.1014693 152.096662,74.1014693 L152.096662,72.4909757 L151.773247,72.4909757 C151.773247,73.4582848 151.664877,74.2635317 151.449831,74.747186 L151.234785,74.4255936 C151.449831,73.9419392 151.556507,73.2962225 151.556507,72.3314456 L151.556507,71.6857289 L151.341461,71.6857289 L151.341461,71.2020745 L151.664877,71.0425444 L151.664877,71.0425444 Z M148.004016,71.2431384 L148.004016,71.7294946 L149.080939,71.7294946 C149.080939,71.568229 149.080939,71.4044036 148.945796,71.2431384 L148.004016,71.2431384 Z M148.004016,71.4863165 L150.157862,71.4863165 L150.157862,70.3993599 L148.004016,70.3993599 L148.004016,71.4863165 Z M147.444232,74.0234982 C147.790797,73.8411515 148.305229,73.8411515 148.651794,73.661654 L148.825076,74.2029956 C148.305229,74.3853423 147.790797,74.567689 147.100375,74.747186 L146.927093,74.2029956 L147.100375,74.0234982 L147.100375,70.3993599 L150.544363,70.3993599 L150.544363,72.0290824 L149.168934,72.0290824 L149.168934,72.5732732 L150.717645,72.5732732 L150.717645,73.1174636 L149.339509,73.1174636 C149.339509,73.2969611 149.339509,73.2969611 149.512791,73.2969611 C149.686074,73.6616545 149.856648,73.8411515 150.029931,74.0234982 C150.200506,74.2029956 150.373788,74.2029956 150.544363,74.2029956 C150.544363,74.2029956 150.717645,74.2029956 150.717645,74.0234982 C150.717645,73.8411515 150.717645,73.661654 150.88822,73.4793078 L151.234785,73.661654 C151.234785,74.0234982 151.061503,74.3853419 151.061503,74.5676886 C151.061503,74.747186 150.88822,74.747186 150.717645,74.747186 C150.458653,74.7033662 150.21864,74.5770826 150.029931,74.3853423 C149.759047,74.1203645 149.526445,73.8151231 149.339509,73.4793078 C149.339509,73.2969611 149.168934,73.1174636 149.168934,73.1174636 L147.444232,73.1174636 L147.444232,74.0234982 L147.444232,74.0234982 Z M117.985579,73.6602295 L117.85017,73.1379436 L118.389689,73.1379436 C118.522982,73.1379436 118.522982,72.9629366 118.522982,72.9629366 L118.522982,69.3124034 L118.927093,69.3124034 L118.927093,73.1379436 C118.927093,73.485223 118.791684,73.6602295 118.522982,73.6602295 L117.985579,73.6602295 L117.985579,73.6602295 Z M117.613623,73.6602295 L118.086716,73.6602295 L118.086716,70.3993599 L117.613623,70.3993599 L117.613623,73.6602295 Z M115.696324,71.4863165 L116.773247,71.4863165 L116.773247,70.3993599 L115.696324,70.3993599 L115.696324,71.4863165 Z M115.982751,71.9662184 L115.982751,70.3993599 L117.705828,70.3993599 L117.705828,71.9662184 L116.988631,71.9662184 L116.988631,72.4857697 L117.85017,72.4857697 L117.85017,74.0526278 C117.85017,74.3999071 117.563742,74.5749136 117.277314,74.5749136 L116.988631,74.5749136 L116.84429,74.2249002 L117.132973,74.2249002 C117.286881,74.2129106 117.409512,74.0642263 117.419401,73.8776208 L117.419401,73.0107901 L116.84429,73.0107901 C116.84429,73.355335 116.702204,73.5303415 116.702204,73.7053484 C116.557862,74.0526278 116.271435,74.3999067 115.982751,74.747186 L115.696324,74.3999071 C115.982751,74.2249002 116.271434,73.8776213 116.271434,73.5303419 C116.271434,73.355335 116.415776,73.1830625 116.415776,73.0080556 L115.696324,73.0080556 L115.696324,72.4857697 L116.415776,72.4857697 L116.415776,71.9662184 L115.982751,71.9662184 L115.982751,71.9662184 Z M113.004486,71.9038709 C113.182249,71.5671969 113.182249,71.2331536 113.182249,70.7334032 L113.540596,70.7334032 L113.540596,71.2331536 L114.08235,71.2331536 L114.08235,70.3993599 L114.61846,70.3993599 L114.61846,71.2331536 L115.696324,71.2331536 L115.696324,71.7355339 L114.61846,71.7355339 L114.61846,72.7402948 L115.518561,72.7402948 L115.518561,73.2426751 L114.61846,73.2426751 L114.61846,74.2448058 L115.696324,74.2448058 L115.696324,74.747186 L112.646139,74.747186 L112.646139,74.2448058 L114.08235,74.2448058 L114.08235,73.2426751 L113.004486,73.2426751 L113.004486,72.7402948 L114.08235,72.7402948 L114.08235,71.7355339 L113.362833,71.7355339 C113.182249,72.0722079 113.182249,72.4062511 113.004486,72.5719578 L112.646139,72.2379141 C112.646139,72.2379141 112.646139,72.0722075 112.823902,72.0722079 L112.646139,72.0722079 C112.646139,71.7355339 112.465554,71.5671973 112.465554,71.2331536 L112.823902,71.0674469 C112.823902,71.4014906 112.823902,71.5671969 113.004486,71.9038709 L113.004486,71.9038709 Z M112.230246,73.6602295 L112.700862,73.6602295 L112.700862,69.3124034 L112.230246,69.3124034 L112.230246,73.6602295 Z M111.625178,71.4863165 C111.625178,71.8941919 111.625178,72.1653972 111.466654,72.573273 L111.152085,72.4366026 C111.308131,72.1653972 111.308131,71.7575218 111.308131,71.4863165 L111.625178,71.4863165 L111.625178,71.4863165 Z M116.773247,63.8776208 L118.927093,63.8776208 L118.927093,62.7906643 L116.773247,62.7906643 L116.773247,63.8776208 Z M117.019576,64.7896808 L116.578492,64.7896808 L116.578492,63.2265403 C116.285206,63.3987044 116.137408,63.3987044 115.841812,63.398704 L115.696324,62.8767464 C116.430694,62.7018494 116.871778,62.5296853 117.460661,62.3547887 C117.312863,62.1826246 117.019577,62.0077276 116.723981,61.8328307 L117.019576,61.6579341 C117.312863,61.8328311 117.46066,62.0077281 117.753947,62.1826246 C118.195031,62.0077276 118.34052,61.6579341 118.636116,61.310873 L117.167374,61.310873 C116.871778,61.6579341 116.578492,61.8328307 116.137408,62.1826246 L115.841812,61.8328307 C116.576183,61.4857696 117.019576,61.1387089 117.167374,60.6167513 L117.606149,60.6167513 C117.606149,60.7916482 117.46066,60.7916482 117.460661,60.9638119 L118.927093,60.9638119 L118.927093,61.310873 C118.636116,61.8328307 118.195031,62.3547887 117.460661,62.8767464 L118.927093,62.8767464 L118.927093,64.9645773 L118.488318,64.9645773 L118.488318,64.7896808 L116.871778,64.7896808 L117.019576,64.7896808 L117.019576,64.7896808 Z M112.734256,62.7893507 L112.465554,62.4557111 C112.600963,62.1220711 112.734256,61.620298 112.734256,60.953018 L113.002958,60.953018 L113.002958,61.4521644 L113.409184,61.4521644 L113.409184,60.6167513 L113.811179,60.6167513 L113.811179,61.4521644 L114.486107,61.4521644 L114.486107,61.9539376 L113.811179,61.9539376 L113.811179,62.9574843 L114.486107,62.9574843 L114.486107,63.4592575 L113.811179,63.4592575 L113.811179,64.4628042 L114.6194,64.4628042 L114.6194,64.9645773 L112.600963,64.9645773 L112.600963,64.4628042 L113.409184,64.4628042 L113.409184,63.4592575 L112.734256,63.4592575 L112.734256,62.7893507 L113.409184,62.9574843 L113.409184,61.9539376 L113.002958,61.9539376 C113.002958,62.2902047 112.869665,62.4583379 112.734256,62.7893507 L112.734256,62.7893507 Z M112.702101,61.7037078 L112.387531,61.7037078 C112.229008,62.067289 112.229008,62.307783 112.229008,62.5482766 L112.543578,62.7906643 C112.702101,62.4270831 112.702101,62.067289 112.702101,61.7037078 Z M112.033769,59.8636364 C112.033769,60.2001068 111.927093,60.3657129 111.927093,60.6995546 L112.357185,60.6995546 L112.357185,60.8677898 C112.357185,61.5381015 112.250508,62.2057845 112.142139,62.7078609 L112.465554,63.2099378 L112.250508,63.5437791 C112.142139,63.3781726 112.142139,63.2099374 112.033769,63.0417026 C111.927093,63.3781731 111.712047,63.7120143 111.603677,63.8776208 L111.388631,63.5437791 C111.603677,63.3781726 111.712047,63.0417026 111.818723,62.7078609 C111.712047,62.5422545 111.603677,62.3713905 111.388631,62.2057845 C111.495308,61.8719428 111.495308,61.3698663 111.603677,60.8677898 L111.388631,60.8677898 L111.388631,60.3657129 L111.603677,60.3657129 C111.603677,60.0318712 111.712047,59.8636364 111.712047,59.5297947 L112.033769,59.8636364 L112.033769,59.8636364 Z M158.773247,73.6602295 L164.157862,73.6602295 L164.157862,70.3993599 L158.773247,70.3993599 L158.773247,73.6602295 Z M123.234785,101.921099 L141.542477,101.921099 L141.542477,98.6602295 L123.234785,98.6602295 L123.234785,101.921099 Z M140.465554,109.529795 L194.311708,109.529795 L194.311708,106.268925 L140.465554,106.268925 L140.465554,109.529795 Z M123.234785,93.2254469 L160.927093,93.2254469 L160.927093,89.9645773 L123.234785,89.9645773 L123.234785,93.2254469 Z M123.234785,83.4428382 L151.234785,83.4428382 L151.234785,80.1819686 L123.234785,80.1819686 L123.234785,83.4428382 Z M123.234785,73.6602295 L138.311708,73.6602295 L138.311708,70.3993599 L123.234785,70.3993599 L123.234785,73.6602295 Z M123.234785,63.8776208 L138.311708,63.8776208 L138.311708,60.6167513 L123.234785,60.6167513 L123.234785,63.8776208 Z" id="形状" fill="#E2E5EF" fill-rule="nonzero"></path>
                    <polygon id="路径" fill="#FEE9E8" fill-rule="nonzero" points="185 84.1392644 185 80 175 80 175 84.1392644 179.99869 89"></polygon>
                    <path d="M192.067694,86.0676853 L185.469847,84.3441627 C185.307998,84.3441627 185.307998,84.3441627 185.148679,84.1707264 L179.84056,87.4470452 L174.689232,84 C174.527383,84.1707264 174.365535,84.1707264 174.208744,84.3441627 L167.610897,86.0676853 C166.644864,86.2384116 166,87.2763188 166,88.3088065 L166,92.7937592 C166,93.4820842 166.483016,93.9996832 167.125351,93.9996828 L192.871878,93.9996828 C193.172651,94.0071477 193.463208,93.8825843 193.676182,93.6548735 C193.889157,93.4271628 194.00605,93.1160825 194,92.7937592 L194,88.3088065 C193.673533,87.2763188 193.033726,86.2384116 192.067694,86.0676853" id="路径" fill="#EDF1F6" fill-rule="nonzero"></path>
                    <path d="M175,80 L175,84.4039787 C181.332198,86.8718688 185,80.8780255 185,80.878026 L185,80.1744969 L175,80.1744969 L175,80" id="路径" fill="#F5DDDD" fill-rule="nonzero"></path>
                    <path d="M174,68 L174.456815,78.2184424 C174.456815,79.2079089 174.91363,80.0316008 175.678195,80.6895182 L177.666543,82.3394924 C178.128167,82.8316352 178.738857,83 179.503422,83 L181.49177,83 C182.104864,83 182.717958,82.8342254 183.328648,82.3394924 L185.316996,80.6895182 C186.081561,80.1947852 186.386906,79.2079089 186.543185,78.2184424 L187,68 L174,68" id="路径" fill="#FFEEEE" fill-rule="nonzero"></path>
                    <path d="M189.674565,90.3464267 L192.80689,87.5674112 C193.091933,87.884867 193.245253,88.3041565 193.234229,88.7360699 L193.234229,92.5434135 C193.240416,92.8168231 193.137507,93.0809242 192.949432,93.2743063 C192.761357,93.4676883 192.504503,93.573501 192.238597,93.5671401 L188.96308,93.5671401 L188.96308,92.2512486 C188.822744,91.5283241 189.099675,90.7869119 189.674565,90.3464267 M169.871748,90.3465523 L166.737689,87.5674112 C166.453097,87.8851116 166.300478,88.3044677 166.312353,88.7361227 L166.312353,92.5436383 C166.312353,93.1279941 166.737689,93.5674112 167.306297,93.5674112 L170.583627,93.5674112 L170.583627,92.2514603 C170.723474,91.5285526 170.446504,90.7874097 169.871748,90.3465523" id="形状" fill="#E3E9F0" fill-rule="nonzero"></path>
                    <polygon id="路径" fill="#C7CDE5" fill-rule="nonzero" points="181 94 179 94 179.234967 89 180.765033 89"></polygon>
                    <path d="M181,88 L179,88 L179,89.201258 C179,89.6006292 179.234968,90 179.469935,90 L180.531915,90 C180.765033,90 181,89.6006287 181,89.201258 L181,88" id="路径" fill="#C7CDE5" fill-rule="nonzero"></path>
                    <path d="M185.689202,82.7225448 L180.813564,86.5634784 C180.813564,86.5634784 182.116117,87.1313463 183.903937,88.4124027 C184.225744,88.6963368 184.713563,88.5554876 185.037925,88.2693181 L187.313564,83.8605163 L186.498829,82.8633937 C186.337925,82.5794596 185.85266,82.4386107 185.689202,82.7225448 M175.941119,82.7225448 L180.813564,86.5634784 C180.813564,86.5634784 179.515608,87.1313463 177.727086,88.4124027 C177.400041,88.6963368 176.912031,88.5554876 176.587542,88.2693181 L174.313564,83.8605163 L175.126064,82.8633937 C175.287031,82.5794596 175.611519,82.4386107 175.938564,82.7225448" id="形状" fill="#E3E9F0" fill-rule="nonzero"></path>
                    <path d="M184,65.3271282 L184.454684,68.9380951 C186.575748,69.428505 186.878077,73.0420531 187.028052,74.1958071 C187.028052,74.360998 187.028052,74.5236077 187.180406,74.6862174 L187.937419,76 C187.937419,76 187.63509,73.700235 188.996761,72.2238426 C188.996761,72.2238426 189.301471,63.1899729 184,65.3271282" id="路径" fill="#9499AD" fill-rule="nonzero"></path>
                    <path d="M187.972913,75.231884 L187.416119,77.536232 C187.416119,77.8454109 187.137722,78 186.857134,78 C186.578737,78 186.30034,77.8454105 186.30034,77.536232 L186.021944,75.231884 C185.881649,74.6183575 186.438443,74 186.997428,74 C187.696708,74 188.113207,74.6183575 187.972913,75.231884" id="路径" fill="#FFEEEE" fill-rule="nonzero"></path>
                    <path d="M174.057467,64.4634577 L174.827493,64.9487228 C171.426744,67.5487229 172.043737,72.2634578 172.043737,72.2634578 C173.127119,73.4000002 173.127119,76 173.127119,76 L174.208071,74.8634576 C174.208071,74.8634576 173.746541,71.7756383 175.752983,70.4756384 C177.60882,69.3365423 179.156161,69.9903734 180.701073,69.9903734 C185.027312,69.9903734 186.263728,68.3634578 185.955231,66.2512767 C185.799768,65.1121806 184.254856,63 180.234685,63 C178.689773,63.1634579 175.599949,63.6487229 174.055037,64.4634577" id="路径" fill="#9499AD" fill-rule="nonzero"></path>
                    <path d="M173.904344,69.526121 C173.904344,69.526121 173.39594,67.2630605 175.080027,65 C171.372918,67.5859918 172.048142,72.2799354 172.048142,72.2799354 C173.057005,73.4114658 173.057005,76 173.057004,76 L174.068516,74.8684696 C174.068516,74.8684696 173.565408,71.7917243 175.752602,70.5 C177.606157,69.3684696 179.292891,70.0143321 180.976978,70.0143317 C181.649553,70.0143317 182.327425,70.0143317 183,69.8515951 C179.629179,70.0143321 177.439337,67.4257975 173.901696,69.5286638" id="路径" fill="#9499AD" fill-rule="nonzero"></path>
                    <path d="M173.022556,75.231884 L173.582825,77.536232 C173.582825,77.8454109 173.861861,78 174.140897,78 C174.419933,78 174.701167,77.8454105 174.701167,77.536232 L174.978006,75.231884 C175.118622,74.6183575 174.56055,74 174.000281,74 C173.440012,74 172.879742,74.6183575 173.022556,75.231884" id="路径" fill="#FFEEEE" fill-rule="nonzero"></path>
                    <path d="M187.33473,93 L183.500262,93 C183.167627,93 183,93.1675394 183,93.4973819 L183,94 L188,94 L188,93.5 C187.832373,93.1675389 187.667365,93.0026178 187.33473,93.0026178" id="路径" fill="#E3E9F0" fill-rule="nonzero"></path>
                </g>
                <g id="编组" transform="translate(221.000000, 116.000000)" fill-rule="nonzero">
                    <path d="M0,54 C0,83.8233765 24.1766235,108 54,108 C83.8233765,108 108,83.8233765 108,54 C108,24.1766235 83.8233765,0 54,0 C24.1766235,0 0,24.1766235 0,54 L0,54 Z" id="路径" fill="#000000" opacity="0.4"></path>
                    <path d="M54,42 C61.8375001,42 68,48.1604513 68,56.0010257 C68,63.8374972 61.8375001,70 54,70 C46.1583332,70 40,63.8395487 40,56.0010257 C40,48.1604513 46.1583335,42 54,42 Z M53.9979076,47 C49.0260407,47 45,51.0306811 45,56.0010304 C45,60.9713796 49.0302255,65 53.9979076,65 C58.9697745,65 63,60.9713796 63,56.0010304 C63,51.0306811 58.9697745,47 53.9979076,47 Z M45.898694,30 L41.038915,35.8195318 L32.400201,35.8195318 C29.428885,35.8195318 27,38.0145117 27,41.0538706 L27,72.4720522 C27,75.5134357 29.430894,78 32.3981919,78 L75.599799,78 C78.571115,78 81,75.5134361 81,72.4720522 L81,41.0538706 C81,38.0165366 78.569106,35.8195318 75.599799,35.8195318 L66.961085,35.8195318 L62.0972879,30 L45.896685,30 L45.898694,30 Z" id="形状" fill="#F6F9FC"></path>
                </g>
            </g>
        </g>
    </g>
</svg>