<?xml version="1.0" encoding="UTF-8"?>
<svg width="30px" height="30px" viewBox="0 0 30 30" version="1.1" xmlns="http://www.w3.org/2000/svg" xmlns:xlink="http://www.w3.org/1999/xlink">
    <title>形状结合</title>
    <g id="星际云二期" stroke="none" stroke-width="1" fill="none" fill-rule="evenodd">
        <g id="我的_设置_实名认证未通过" transform="translate(-530.000000, -168.000000)" fill="#FF0400" fill-rule="nonzero">
            <g id="选择支付方式" transform="translate(0.000000, 128.000000)">
                <path d="M555.626959,44.3730408 C561.45768,50.2037618 561.45768,59.7962382 555.626959,65.6269592 C549.796238,71.4576803 540.39185,71.4576803 534.373041,65.6269592 C528.54232,59.7962382 528.54232,50.2037618 534.373041,44.3730408 C540.203762,38.5423197 549.796238,38.5423197 555.626959,44.3730408 Z M536.253918,46.0658307 C531.363636,50.9561129 531.363636,58.8557994 536.253918,63.7460815 C541.144201,68.6363636 549.043887,68.6363636 553.934169,63.7460815 C558.824451,58.8557994 558.824451,50.9561129 553.934169,46.0658307 C549.043887,41.1755486 541.144201,41.1755486 536.253918,46.0658307 Z M549.60815,48.5109718 C550.172414,47.9467085 550.924765,47.9467085 551.489028,48.5109718 C552.053292,49.0752351 552.053292,49.8275862 551.489028,50.3918496 L551.489028,50.3918496 L546.974922,54.9059561 L551.30094,59.4200627 C551.865204,59.7962382 551.865204,60.5485893 551.489028,61.3009404 C550.924765,61.8652038 550.172414,61.8652038 549.60815,61.3009404 L549.60815,61.3009404 L545.094044,56.7868339 L540.579937,61.3009404 C540.015674,61.8652038 539.263323,61.8652038 538.69906,61.3009404 C538.134796,60.7366771 538.134796,59.984326 538.69906,59.4200627 L538.69906,59.4200627 L543.213166,54.9059561 L538.69906,50.5799373 C538.134796,50.015674 538.134796,49.2633229 538.69906,48.6990596 C539.263323,48.1347962 540.015674,48.1347962 540.579937,48.6990596 L540.579937,48.6990596 L545.094044,53.0250784 Z" id="形状结合"></path>
            </g>
        </g>
    </g>
</svg>