<svg width="100" height="100" viewBox="0 0 100 100" fill="none" xmlns="http://www.w3.org/2000/svg">
<path d="M28.0548 89.1435C27.9026 89.0494 27.793 88.8999 27.7489 88.7264C27.7049 88.553 27.73 88.3693 27.8188 88.214C27.9076 88.0587 28.0533 87.944 28.2251 87.8941C28.3969 87.8441 28.5814 87.8629 28.7396 87.9463C35.3023 91.7 42.734 93.6686 50.2943 93.6563C72.4218 93.6563 90.9542 77.0404 93.4814 55.2407C93.5088 55.0644 93.6036 54.9055 93.7457 54.7975C93.8878 54.6895 94.0662 54.6408 94.2435 54.6615C94.4208 54.6823 94.5831 54.7709 94.6964 54.9089C94.8097 55.0468 94.8651 55.2232 94.8511 55.4012C92.2428 77.8926 73.1256 95.0363 50.2943 95.0363C42.4937 95.0484 34.8259 93.0167 28.0548 89.1435ZM70.9348 10.3424C71.092 10.4294 71.2091 10.5744 71.2611 10.7465C71.3132 10.9185 71.296 11.1041 71.2133 11.2637C71.1305 11.4233 70.9888 11.5443 70.8183 11.601C70.6477 11.6577 70.4617 11.6455 70.2999 11.5672C64.1199 8.35957 57.2572 6.6902 50.2943 6.70079C28.4412 6.70079 10.0606 22.9164 7.20042 44.378C7.17617 44.5594 7.08085 44.7237 6.93543 44.8349C6.79002 44.946 6.60641 44.9948 6.425 44.9706C6.2436 44.9463 6.07925 44.851 5.96813 44.7056C5.857 44.5602 5.80819 44.3765 5.83244 44.1951C8.78403 22.0504 27.7477 5.32074 50.2943 5.32074C57.5776 5.32074 64.6124 7.05788 70.9348 10.3407V10.3424Z" fill="#E64340"/>
<path d="M49.3128 77.3699C49.2222 77.37 49.1324 77.3521 49.0487 77.3175C48.9649 77.2828 48.8888 77.232 48.8247 77.1679C48.7606 77.1038 48.7098 77.0278 48.6751 76.944C48.6404 76.8603 48.6225 76.7705 48.6225 76.6799C48.6225 76.5893 48.6404 76.4995 48.6751 76.4158C48.7098 76.332 48.7606 76.256 48.8247 76.1919C48.8888 76.1278 48.9649 76.077 49.0487 76.0423C49.1324 76.0077 49.2222 75.9898 49.3128 75.9899C58.9732 75.9899 67.7365 70.8336 72.4977 62.6309C72.5432 62.5525 72.6038 62.4837 72.6759 62.4286C72.748 62.3735 72.8303 62.3331 72.918 62.3098C73.0057 62.2865 73.0971 62.2807 73.187 62.2928C73.277 62.3048 73.3637 62.3344 73.4422 62.38C73.5207 62.4255 73.5894 62.486 73.6445 62.5581C73.6996 62.6302 73.74 62.7125 73.7633 62.8002C73.7866 62.8879 73.7924 62.9793 73.7804 63.0693C73.7683 63.1592 73.7387 63.2459 73.6932 63.3244C71.2181 67.5981 67.6625 71.1456 63.3832 73.6109C59.1039 76.0762 54.2514 77.3726 49.3128 77.3699ZM53.6375 21.3553C53.8125 21.3895 53.9674 21.49 54.0698 21.6359C54.1723 21.7818 54.2143 21.9616 54.1871 22.1378C54.1599 22.3139 54.0656 22.4727 53.9239 22.5809C53.7822 22.6891 53.6042 22.7382 53.4271 22.7181C52.0746 22.5111 50.7015 22.4041 49.3128 22.4041C44.3482 22.4028 39.4809 23.7811 35.2541 26.3852C31.0273 28.9894 27.6073 32.7169 25.3758 37.1517C25.335 37.2327 25.2786 37.3049 25.21 37.3641C25.1413 37.4233 25.0617 37.4684 24.9756 37.4968C24.8895 37.5253 24.7986 37.5365 24.7082 37.5298C24.6177 37.5231 24.5295 37.4987 24.4485 37.4579C24.3675 37.4171 24.2954 37.3608 24.2362 37.2921C24.1769 37.2235 24.1318 37.1438 24.1034 37.0577C24.075 36.9716 24.0638 36.8807 24.0704 36.7903C24.0771 36.6999 24.1016 36.6117 24.1423 36.5307C26.4889 31.8675 30.0852 27.9481 34.5298 25.2099C38.9744 22.4718 44.0924 21.0226 49.3128 21.024C50.7705 21.024 52.2161 21.1362 53.6375 21.3553ZM49.4215 16.1973L47.0167 17.5135L47.4325 14.8052L45.4366 12.9249L48.1432 12.485L49.3128 10.006L50.5686 12.4418L53.2873 12.7886L51.3587 14.7362L51.8693 17.429L49.4215 16.1973ZM74.9404 75.0859L72.5357 76.4039L72.9514 73.6955L70.9555 71.8152L73.6621 71.3753L74.8317 68.8964L76.0876 71.3322L78.8063 71.6789L76.8776 73.6265L77.3883 76.3194L74.9404 75.0859ZM63.241 85.5588L60.5896 86.2558L61.6488 83.7268L60.1652 81.4221L62.8977 81.6464L64.6331 79.5245L65.2628 82.1932L67.8159 83.1869L65.4732 84.61L65.318 87.3477L63.241 85.5588ZM48.678 89.128L45.9524 88.8278L47.8482 86.8475L47.291 84.1632L49.7596 85.3535L52.1402 83.9942L51.771 86.7094L53.7997 88.5553L51.1034 89.0435L49.9769 91.5414L48.678 89.128ZM35.2483 18.9695L33.299 20.8981L32.954 18.1794L30.5165 16.9236L32.9954 15.754L33.437 13.0473L35.3173 15.0432L38.0257 14.6292L36.7077 17.0305L37.9411 19.4801L35.2483 18.9695ZM24.5201 28.1417L23.7507 30.7724L22.1292 28.5626L19.3898 28.6454L20.9906 26.4201L20.066 23.8394L22.676 24.6743L24.8444 22.9975L24.8565 25.7387L27.1232 27.2826L24.5201 28.1417Z" fill="#E64340"/>
<path d="M4.08327 53.4881C3.312 53.8643 2.7217 54.5314 2.4422 55.3427C2.1627 56.154 2.21688 57.0431 2.59282 57.8145L14.6407 82.5158C15.0172 83.2867 15.6844 83.8767 16.4957 84.1558C17.307 84.435 18.196 84.3806 18.9672 84.0045L96.5986 46.141C97.3699 45.7648 97.9602 45.0977 98.2397 44.2864C98.5192 43.4751 98.465 42.5859 98.0891 41.8145L86.0412 17.1133C85.6647 16.3423 84.9975 15.7524 84.1862 15.4732C83.3749 15.1941 82.4859 15.2485 81.7148 15.6246L4.08327 53.4881ZM3.4795 52.246L81.1075 14.3842C81.6525 14.1183 82.2444 13.9623 82.8497 13.9252C83.4549 13.888 84.0615 13.9705 84.6348 14.1679C85.2082 14.3652 85.737 14.6736 86.1911 15.0754C86.6453 15.4772 87.0158 15.9645 87.2816 16.5095L99.3294 41.209C99.5954 41.754 99.7514 42.3459 99.7885 42.9512C99.8256 43.5564 99.7431 44.163 99.5458 44.7363C99.3484 45.3097 99.04 45.8385 98.6383 46.2926C98.2365 46.7468 97.7492 47.1173 97.2041 47.3831L19.5727 85.2431C18.4727 85.7799 17.2047 85.858 16.0472 85.4601C14.8898 85.0622 13.9377 84.2209 13.4004 83.1213L1.35249 58.42C0.815916 57.3197 0.738381 56.0513 1.13694 54.8938C1.5355 53.7363 2.37751 52.7845 3.47778 52.2477L3.4795 52.246Z" fill="#E64340"/>
<path d="M20.1318 67.097L23.7136 65.272L24.558 66.9293L20.9762 68.7543L20.1318 67.097ZM25.348 68.4796L27.1458 72.008L28.8209 71.1545L27.0231 67.6261L30.6584 65.7738L31.1215 66.6827L32.7787 65.8382L28.2751 56.9995L22.9826 59.6962L22.1926 58.1458L20.5175 58.9993L21.3075 60.5497L16.0683 63.2191L20.5992 72.1114L22.2564 71.2669L21.7661 70.3047L25.348 68.4796ZM26.2331 66.0758L25.3887 64.4185L29.024 62.5662L29.8684 64.2235L26.2331 66.0758ZM28.2704 61.0871L24.6351 62.9394L23.7816 61.2643L27.4169 59.412L28.2704 61.0871ZM22.1065 62.1178L22.96 63.7929L19.3781 65.618L18.5246 63.9429L22.1065 62.1178ZM27.6951 52.469L20.9235 55.9193C20.5267 55.493 20.1302 55.1114 19.7788 54.7741L18.1243 55.9763C18.475 56.2241 18.817 56.4988 19.1771 56.8091L12.5124 60.205L14.2739 63.6621L15.9133 62.8267L14.9418 60.92L26.8456 54.8547L27.7718 56.6723L29.4112 55.837L27.6951 52.469Z" fill="#E84E4C"/>
<path d="M37.2651 55.9205C38.0469 56.3975 39.0086 57.0074 40.1233 57.7413L40.3323 55.8167C38.9228 55.1208 37.5855 54.5227 36.3027 54.0315L35.8124 53.0693L37.7726 52.0705L36.9463 50.4488L34.9861 51.4476L33.2882 48.1153L31.6666 48.9415L33.3645 52.2739L31.0479 53.4543L31.8741 55.0759L34.1016 53.9409C34.6566 56.3517 34.7997 58.703 34.4771 60.9774L36.0619 62.3697C36.1922 60.6871 36.1073 58.9346 35.8433 57.1388L40.0381 65.3717L41.6598 64.5454L37.2651 55.9205ZM36.504 48.7438L37.294 50.2941L40.4303 48.6961C40.2953 50.9422 40.0204 52.4291 39.5877 53.1658C39.5437 53.2556 39.464 53.3635 39.3396 53.4718L40.3773 54.6714C41.6153 53.9733 42.7998 53.3024 43.904 52.65C43.2582 54.7748 42.1279 56.6975 40.504 58.4004L42.148 59.336C44.9335 56.3005 46.3095 52.5692 46.2846 48.115L44.5402 48.0835C44.5288 48.9423 44.4636 49.7835 44.3537 50.6252C43.4368 51.2046 42.5109 51.7662 41.5668 52.2921C41.872 51.2612 42.0753 49.7659 42.1767 47.8063L47.0594 45.3184L46.2695 43.7681L42.3847 45.7475C41.8258 45.1793 41.2764 44.6736 40.7545 44.2661L39.1712 45.432C39.6924 45.75 40.2052 46.1397 40.7274 46.5919L36.504 48.7438ZM47.989 57.0108C49.8269 57.5782 51.3881 58.2193 52.6635 58.9163L53.2754 57.0333C51.8574 56.409 50.2703 55.8933 48.5137 55.4415C49.0193 53.7024 49.2824 51.84 49.3213 49.8898L47.5412 49.8765C47.4354 54.7789 45.669 58.9336 42.2248 62.3944L43.8869 63.3657C45.6971 61.4557 47.0675 59.3434 47.989 57.0108Z" fill="#E84E4C"/>
<path d="M50.6662 39.7096C51.0803 42.4167 50.8485 44.8693 49.9707 47.0673L52.0497 47.5793C52.4175 46.5389 52.6679 45.3563 52.7653 44.0497L56.7036 42.0431L57.1394 42.8984C57.5033 43.7007 57.7955 44.4945 58.034 45.2709L51.2802 48.7121L52.1155 50.3516L58.4595 47.1192C58.5913 47.9947 58.6156 48.8353 58.5414 49.6588C58.2698 51.5929 56.9802 53.7315 54.6814 56.0924L56.3167 57.0549C58.6426 54.7475 60.0025 52.4384 60.3968 50.1724C60.541 49.1338 60.5415 48.0336 60.3717 46.8631C62.7406 49.0455 66.1737 50.0123 70.6975 49.7275L70.8705 47.7763C66.6433 48.2467 63.4893 47.5193 61.4354 45.6028L67.815 42.3523L66.9797 40.7128L59.7804 44.3811C59.5241 43.6138 59.214 42.829 58.8502 42.0268L58.4143 41.1714L64.2415 38.2023L63.3971 36.545L57.5699 39.5141L56.0445 36.5203L54.3338 37.392L55.8592 40.3858L52.7941 41.9475C52.7705 41.1963 52.6928 40.383 52.5791 39.5431L50.6662 39.7096Z" fill="#E84E4C"/>
<path d="M77.9236 34.2612C79.2417 35.8791 80.683 37.2099 82.2651 38.2444C82.0628 39.8738 81.502 41.4165 80.6007 42.8634L82.29 43.8882C83.1285 42.406 83.6801 40.8454 83.9719 39.2153C85.4265 39.9556 87.0311 40.4175 88.75 40.6191L88.8594 38.5431C87.1853 38.3412 85.6167 37.9059 84.1624 37.2103C84.2136 34.5355 83.5299 31.6516 82.1114 28.6033L83.1093 28.0949L82.2739 26.4554L77.2843 28.9977C77.0721 28.1407 76.8148 27.2392 76.5034 26.2756L74.7284 26.9331C75.9606 30.1885 76.3754 32.985 75.9549 35.3316L77.6066 36.1062C77.7723 35.5504 77.8661 34.9414 77.9236 34.2612ZM82.3298 36.1687C80.6216 35.0189 79.1071 33.4562 77.768 31.4449C77.7397 31.2573 77.7115 31.0696 77.6742 30.8642L80.5254 29.4114C81.6166 31.7734 82.2241 34.0229 82.3298 36.1687ZM72.5783 28.8367L65.6641 32.3597L71.4388 43.6933L72.9892 42.9033L68.0044 33.1201L71.8357 31.1679L76.8205 40.9512L78.353 40.1703L72.5783 28.8367ZM76.5482 41.6062L75.9703 43.2474C77.5399 43.8169 78.8416 44.4331 79.8661 45.0783L80.478 43.1953C79.3286 42.6137 78.0186 42.0691 76.5482 41.6062ZM69.7794 33.6522L72.5851 39.1586C73.3488 40.7897 73.7621 42.2177 73.8429 43.4335C73.8518 44.5962 73.4137 45.8071 72.475 47.0485L74.1462 48.0376C75.138 46.7242 75.6285 45.352 75.6442 43.885C75.6145 42.3288 75.0818 40.4903 74.0641 38.405L71.2585 32.8986L69.7794 33.6522Z" fill="#E84E4C"/>
</svg>
