<svg width="100" height="100" viewBox="0 0 100 100" fill="none" xmlns="http://www.w3.org/2000/svg">
<path d="M28.0548 89.1435C27.9026 89.0494 27.793 88.8999 27.7489 88.7264C27.7049 88.553 27.73 88.3693 27.8188 88.214C27.9076 88.0587 28.0533 87.944 28.2251 87.8941C28.3969 87.8441 28.5814 87.8629 28.7396 87.9463C35.3023 91.7 42.734 93.6686 50.2943 93.6563C72.4218 93.6563 90.9542 77.0404 93.4814 55.2407C93.5088 55.0644 93.6036 54.9055 93.7457 54.7975C93.8878 54.6895 94.0662 54.6408 94.2435 54.6615C94.4208 54.6823 94.5831 54.7709 94.6964 54.9089C94.8097 55.0468 94.8651 55.2232 94.8511 55.4012C92.2428 77.8926 73.1256 95.0363 50.2943 95.0363C42.4937 95.0484 34.8259 93.0167 28.0548 89.1435ZM70.9348 10.3424C71.092 10.4294 71.2091 10.5744 71.2611 10.7465C71.3132 10.9185 71.296 11.1041 71.2133 11.2637C71.1305 11.4233 70.9888 11.5443 70.8183 11.601C70.6477 11.6577 70.4617 11.6455 70.2999 11.5672C64.1199 8.35957 57.2572 6.6902 50.2943 6.70079C28.4412 6.70079 10.0606 22.9164 7.20042 44.378C7.17617 44.5594 7.08085 44.7237 6.93543 44.8349C6.79002 44.946 6.60641 44.9948 6.425 44.9706C6.2436 44.9463 6.07925 44.851 5.96813 44.7056C5.857 44.5602 5.80819 44.3765 5.83244 44.1951C8.78403 22.0504 27.7477 5.32074 50.2943 5.32074C57.5776 5.32074 64.6124 7.05788 70.9348 10.3407V10.3424Z" fill="#07C160"/>
<path d="M49.3128 77.3699C49.2221 77.37 49.1324 77.3521 49.0486 77.3175C48.9649 77.2828 48.8888 77.232 48.8247 77.1679C48.7606 77.1038 48.7097 77.0278 48.675 76.944C48.6403 76.8603 48.6225 76.7705 48.6225 76.6799C48.6225 76.5893 48.6403 76.4995 48.675 76.4158C48.7097 76.332 48.7606 76.256 48.8247 76.1919C48.8888 76.1278 48.9649 76.077 49.0486 76.0423C49.1324 76.0077 49.2221 75.9898 49.3128 75.9899C58.9731 75.9899 67.7365 70.8336 72.4977 62.6309C72.5432 62.5525 72.6038 62.4837 72.6759 62.4286C72.748 62.3735 72.8302 62.3331 72.9179 62.3098C73.0056 62.2865 73.0971 62.2807 73.187 62.2928C73.277 62.3048 73.3636 62.3344 73.4421 62.38C73.5206 62.4255 73.5894 62.486 73.6445 62.5581C73.6996 62.6302 73.7399 62.7125 73.7633 62.8002C73.7866 62.8879 73.7924 62.9793 73.7803 63.0693C73.7683 63.1592 73.7387 63.2459 73.6931 63.3244C71.2181 67.5981 67.6625 71.1456 63.3832 73.6109C59.1039 76.0762 54.2514 77.3726 49.3128 77.3699ZM53.6375 21.3553C53.8124 21.3895 53.9674 21.49 54.0698 21.6359C54.1722 21.7818 54.2143 21.9616 54.187 22.1378C54.1598 22.3139 54.0655 22.4727 53.9239 22.5809C53.7822 22.6891 53.6042 22.7382 53.4271 22.7181C52.0746 22.5111 50.7014 22.4041 49.3128 22.4041C44.3481 22.4028 39.4808 23.7811 35.254 26.3852C31.0272 28.9894 27.6072 32.7169 25.3757 37.1517C25.3349 37.2327 25.2786 37.3049 25.21 37.3641C25.1413 37.4233 25.0616 37.4684 24.9755 37.4968C24.8894 37.5253 24.7986 37.5365 24.7081 37.5298C24.6177 37.5231 24.5295 37.4987 24.4485 37.4579C24.3675 37.4171 24.2953 37.3608 24.2361 37.2921C24.1769 37.2235 24.1318 37.1438 24.1034 37.0577C24.0749 36.9716 24.0637 36.8807 24.0704 36.7903C24.0771 36.6999 24.1015 36.6117 24.1423 36.5307C26.4889 31.8675 30.0851 27.9481 34.5297 25.2099C38.9743 22.4718 44.0924 21.0226 49.3128 21.024C50.7704 21.024 52.2161 21.1362 53.6375 21.3553ZM49.4214 16.1973L47.0167 17.5135L47.4324 14.8052L45.4365 12.9249L48.1432 12.485L49.3128 10.006L50.5686 12.4418L53.2873 12.7886L51.3587 14.7362L51.8693 17.429L49.4214 16.1973ZM74.9404 75.0859L72.5356 76.4039L72.9514 73.6955L70.9555 71.8152L73.6621 71.3753L74.8317 68.8964L76.0875 71.3322L78.8062 71.6789L76.8776 73.6265L77.3882 76.3194L74.9404 75.0859ZM63.241 85.5588L60.5895 86.2558L61.6487 83.7268L60.1652 81.4221L62.8977 81.6464L64.6331 79.5245L65.2627 82.1932L67.8158 83.1869L65.4732 84.61L65.3179 87.3477L63.241 85.5588ZM48.6779 89.128L45.9523 88.8278L47.8482 86.8475L47.291 84.1632L49.7596 85.3535L52.1401 83.9942L51.771 86.7094L53.7997 88.5553L51.1034 89.0435L49.9769 91.5414L48.6779 89.128ZM35.2483 18.9695L33.299 20.8981L32.9539 18.1794L30.5164 16.9236L32.9953 15.754L33.437 13.0473L35.3173 15.0432L38.0256 14.6292L36.7077 17.0305L37.9411 19.4801L35.2483 18.9695ZM24.5201 28.1417L23.7507 30.7724L22.1291 28.5626L19.3897 28.6454L20.9906 26.4201L20.066 23.8394L22.676 24.6743L24.8444 22.9975L24.8565 25.7387L27.1232 27.2826L24.5201 28.1417Z" fill="#07C160"/>
<path d="M4.08324 53.4881C3.31197 53.8643 2.72167 54.5314 2.44217 55.3427C2.16267 56.154 2.21685 57.0431 2.59279 57.8145L14.6407 82.5158C15.0171 83.2867 15.6844 83.8767 16.4957 84.1558C17.307 84.435 18.1959 84.3806 18.9671 84.0045L96.5986 46.141C97.3699 45.7648 97.9602 45.0977 98.2397 44.2864C98.5192 43.4751 98.465 42.5859 98.0891 41.8145L86.0412 17.1133C85.6647 16.3423 84.9975 15.7524 84.1862 15.4732C83.3749 15.1941 82.4859 15.2485 81.7147 15.6246L4.08324 53.4881ZM3.47947 52.246L81.1075 14.3842C81.6524 14.1183 82.2444 13.9623 82.8496 13.9252C83.4548 13.888 84.0614 13.9705 84.6348 14.1679C85.2081 14.3652 85.737 14.6736 86.1911 15.0754C86.6452 15.4772 87.0158 15.9645 87.2815 16.5095L99.3294 41.209C99.5953 41.754 99.7513 42.3459 99.7885 42.9512C99.8256 43.5564 99.7431 44.163 99.5458 44.7363C99.3484 45.3097 99.04 45.8385 98.6382 46.2926C98.2364 46.7468 97.7491 47.1173 97.2041 47.3831L19.5726 85.2431C18.4727 85.7799 17.2046 85.858 16.0472 85.4601C14.8897 85.0622 13.9377 84.2209 13.4003 83.1213L1.35246 58.42C0.815886 57.3197 0.73835 56.0513 1.13691 54.8938C1.53547 53.7363 2.37748 52.7845 3.47775 52.2477L3.47947 52.246Z" fill="#07C160"/>
<path d="M37.1455 54.784L33.4632 47.2341L19.8555 53.871L20.6533 55.5068L32.5174 49.7203L34.604 53.9986L25.2026 58.584L24.0015 56.1213L22.2758 56.9629L26.8349 66.3104C27.6064 67.8923 28.7472 68.315 30.2751 67.5697L40.1978 62.7301C40.9173 62.3347 41.3873 61.8384 41.6258 61.2326C41.8017 60.635 41.4497 59.1378 40.5607 56.7676L38.6259 57.0437C39.4387 58.9838 39.785 60.15 39.6289 60.5599C39.4824 60.8984 39.2294 61.1553 38.9059 61.3131L29.9359 65.688C29.2528 66.0212 28.7447 65.8462 28.4115 65.1631L26.0005 60.2198L37.1455 54.784Z" fill="#07C160"/>
<path d="M53.4409 38.6474L46.5921 41.9878C46.07 41.4191 45.5829 40.9224 45.113 40.5063L43.3473 41.768C43.7735 42.0942 44.2259 42.4743 44.6687 42.9259L37.9457 46.2049L40.0148 50.4472L41.7585 49.5968L40.496 47.0083L52.5039 41.1516L53.7664 43.7402L55.51 42.8897L53.4409 38.6474ZM42.2364 48.2956L43.0343 49.9314L53.2086 44.969L52.4108 43.3332L42.2364 48.2956ZM41.1169 52.9805L41.9147 54.6163L46.6783 52.293L46.7046 52.3469C47.2552 53.6582 47.3862 54.885 47.1156 56.0183C46.7648 57.1239 45.7595 58.3931 44.0728 59.8166L45.7887 60.8711C47.521 59.3586 48.5821 57.8843 48.9894 56.484C49.371 54.985 49.1817 53.3195 48.3943 51.5227L48.368 51.4688L51.0644 50.1537L53.0722 54.2702C53.7473 55.6543 54.7004 56.0573 55.9407 55.4523L59.0505 53.9356C59.6617 53.6375 60.0234 53.2385 60.1532 52.7747C60.2922 52.2841 59.9819 51.1003 59.2402 49.2146L57.3769 49.5004C57.9367 50.785 58.233 51.5751 58.2479 51.8793C58.254 52.1656 58.1716 52.3616 57.9559 52.4668L55.6909 53.5715C55.2235 53.7994 54.8676 53.617 54.6045 53.0778L52.7721 49.3208L57.6796 46.9273L56.8817 45.2915L41.1169 52.9805Z" fill="#07C160"/>
<path d="M67.3417 29.5088L66.7716 31.0775C67.8072 31.2845 68.6989 31.5616 69.4473 31.8642L66.679 33.2144C66.2397 32.405 65.7742 31.5417 65.3183 30.607L63.5926 31.4486C64.0397 32.3654 64.4693 33.2462 64.9174 34.0736L57.5113 37.6857L60.4309 43.6717C61.806 46.6281 62.3263 49.2003 62.0096 51.3797L63.865 51.8989C64.2492 49.2193 63.6886 46.1994 62.1386 42.8388L62.086 42.731L64.8003 41.4071C65.6762 43.2941 66.2009 44.5068 66.321 45.0268C66.406 45.4749 66.3047 45.769 65.9899 45.9448C65.4866 46.1903 64.8759 46.4437 64.1393 46.7584L65.4146 48.0501C65.9982 47.8322 66.519 47.6227 66.9504 47.4123C67.8764 46.9384 68.3035 46.2628 68.2229 45.3676C68.0896 44.3644 67.2519 42.2363 65.701 38.9651L61.2969 41.1131L60.0168 38.4886L65.8051 35.6655C67.0005 37.7972 68.1377 39.49 69.2433 40.7532C69.8093 41.4118 70.3669 42.0076 70.9342 42.532C70.4668 44.5847 69.5543 46.4093 68.2056 48.024L69.8777 48.9886C71.1176 47.516 72.02 45.8075 72.5668 43.8719C73.011 44.1894 73.4555 44.4621 73.9185 44.6813C75.2986 45.3211 76.3885 45.457 77.1794 45.0713C78.0423 44.6504 78.0937 43.0677 77.3332 40.3679L75.3839 40.295C76.0095 42.1706 76.2054 43.1654 75.9717 43.2794C75.6841 43.4196 75.051 43.2166 74.126 42.6887C73.7792 42.4795 73.4061 42.2165 72.9979 41.8815C73.3234 39.7201 73.2578 37.3044 72.8546 34.6527L70.9663 34.7504C71.2958 36.7036 71.4031 38.5204 71.2969 40.2189C71.0668 39.9751 70.8279 39.7134 70.6069 39.4428C69.7314 38.4235 68.7091 36.8749 67.5487 34.8151L72.9056 32.2024L72.1077 30.5666L69.9506 31.6187L70.3742 30.3885C69.4833 30.0219 68.4754 29.7347 67.3417 29.5088Z" fill="#07C160"/>
</svg>
