<?xml version="1.0" encoding="UTF-8"?>
<svg width="550px" height="320px" viewBox="0 0 550 320" version="1.1" xmlns="http://www.w3.org/2000/svg" xmlns:xlink="http://www.w3.org/1999/xlink">
    <title>身份证正面</title>
    <defs>
        <path d="M345.92952,210.663086 C345.92952,216.937062 340.855703,222 334.567209,222 L11.3604769,222 C5.07224495,222 0,216.937062 0,210.663086 L0,11.3361301 C0,5.06241534 5.07224495,0 11.3604769,0 L334.566685,0 C337.567481,0 340.498059,1.21365172 342.641822,3.35054684 C344.785847,5.48979432 346,8.34186312 346,11.4064451 L346,210.663086 L345.92952,210.663086 Z" id="path-1"></path>
        <filter x="-5.9%" y="-7.4%" width="111.8%" height="118.5%" filterUnits="objectBoundingBox" id="filter-2">
            <feMorphology radius="0.5" operator="dilate" in="SourceAlpha" result="shadowSpreadOuter1"></feMorphology>
            <feOffset dx="0" dy="4" in="shadowSpreadOuter1" result="shadowOffsetOuter1"></feOffset>
            <feGaussianBlur stdDeviation="6" in="shadowOffsetOuter1" result="shadowBlurOuter1"></feGaussianBlur>
            <feComposite in="shadowBlurOuter1" in2="SourceAlpha" operator="out" result="shadowBlurOuter1"></feComposite>
            <feColorMatrix values="0 0 0 0 0.901960784   0 0 0 0 0.937254902   0 0 0 0 0.984313725  0 0 0 0.5 0" type="matrix" in="shadowBlurOuter1"></feColorMatrix>
        </filter>
        <path d="M26.1607143,30 C36.8754684,30 45.5421351,26.5426287 52.1607143,19.6278861 C46.0364591,18.0421247 42.6445868,16.376843 41.9850974,14.6320411 C41.325608,12.8872392 40.8380266,8.13873946 40.5223534,0.386541995 L9.79692119,0 C10.4422886,7.66833108 10.3282529,12.4711248 9.45481407,14.4083813 C8.58137527,16.3456377 5.48334201,18.2470526 0.160714286,20.1126258 C6.77929346,26.7042086 15.4459601,30 26.1607143,30 Z" id="path-3"></path>
        <path d="M11.6723708,0 C14.7004852,2.77052381 18.2636169,4.88594356 22.361766,6.34625925 C29.1028946,8.7483622 37.4946507,7.4918058 41.3161503,8.07509812 C46.5659908,8.87640441 45.9417207,13.5214019 45.9282964,14.2302391 C45.91724,14.814046 45.9026882,15.3833794 45.8847458,15.9387207 C47.8122723,14.7481887 49.5408126,14.9794997 51.0703151,16.6319679 C53.6090677,19.3748259 50.3727846,26.1821522 45.2616462,26.896053 C45.1135446,26.9167392 44.9718801,26.9298958 44.8366528,26.935523 C43.692369,33.1819941 41.7830398,36.3936786 39.6544583,39.0796626 L39.4160917,39.3772845 L39.4160917,39.3772845 L39.1760739,39.6713184 C39.1359427,39.7200681 39.0957498,39.7687005 39.0554985,39.8172318 L38.8133197,40.1073357 L38.8133197,40.1073357 L38.3254398,40.683362 C38.1621426,40.874958 37.9982497,41.0664852 37.8339856,41.2589764 L37.587339,41.5485652 C30.2627621,50.1697477 22.8636881,50.2227819 14.3506857,40.7108939 C10.8570845,36.8073657 8.91260714,33.0597419 7.70135745,26.9081067 C7.4069655,26.9526022 7.07075579,26.948876 6.69257222,26.896053 C1.58143381,26.1821522 -1.65484929,19.3748259 0.883903271,16.6319679 C2.49411789,14.8922986 4.3249311,14.7277336 6.37634291,16.1382728 C6.31977293,15.4043759 6.26541331,14.6450916 6.21288139,13.8604191 C6.20734359,13.7777006 6.19784398,13.5388968 6.19638721,13.1803878 L6.19699023,12.8896297 C6.20900688,11.3813108 6.36614861,8.41950372 7.24025411,5.73716277 C8.02393489,3.33230537 9.50130714,1.41991778 11.6723708,0 Z" id="path-5"></path>
    </defs>
    <g id="星际云二期" stroke="none" stroke-width="1" fill="none" fill-rule="evenodd">
        <g id="我的_设置_身份认证" transform="translate(-100.000000, -322.000000)">
            <g id="身份证正面" transform="translate(100.000000, 322.000000)">
                <rect id="背景" fill="#F6F9FC" x="0" y="0" width="550" height="320" rx="12"></rect>
                <g id="卡" transform="translate(102.000000, 49.000000)">
                    <g fill-rule="nonzero">
                        <g id="路径">
                            <use fill="black" fill-opacity="1" filter="url(#filter-2)" xlink:href="#path-1"></use>
                            <use stroke="#EFF3F6" stroke-width="1" fill="#FFFFFF" xlink:href="#path-1"></use>
                        </g>
                        <path d="M31.5055673,34.6627698 L56.2942569,34.6627698 L56.2942569,47.4042823 L31.5055673,47.4042823 L31.5055673,34.6627698 Z M31.5055673,66.4783181 L56.2942569,66.4783181 L56.2942569,79.2190475 L31.5055673,79.2190475 L31.5055673,66.4783181 Z M31.5055673,98.2228816 L56.2942569,98.2228816 L56.2942569,110.963611 L31.5055673,110.963611 L31.5055673,98.2228816 Z M65.3681455,34.6627698 L182.091133,34.6627698 L182.091133,47.4042823 L65.3681455,47.4042823 L65.3681455,34.6627698 Z M65.3681455,66.4783181 L182.091133,66.4783181 L182.091133,79.2190475 L65.3681455,79.2190475 L65.3681455,66.4783181 Z M65.3681455,98.2228816 L182.091133,98.2228816 L182.091133,110.963611 L65.3681455,110.963611 L65.3681455,98.2228816 Z M104.947221,181.357838 L311.902873,181.357838 L311.902873,194.097001 L104.947221,194.097001 L104.947221,181.357838 L104.947221,181.357838 Z M31.5055673,181.357838 L97.2312722,181.357838 L97.2312722,194.097001 L31.5055673,194.097001 L31.5055673,181.357838 Z" id="形状" fill="#F6F9FC"></path>
                    </g>
                    <g id="Head-Copy" transform="translate(239.000000, 34.000000)">
                        <path d="M46.5051798,33.2576668 L48.3092104,24.3902297 C49.976616,17.9166146 48.6254742,12.5068207 44.2557852,8.16084803 C34.7461906,-1.29713339 19.7778004,-0.233985761 15.06069,2.53754892 C11.2953364,4.7498796 9.60936295,7.59531411 10.0027698,11.0738524 C0.855360016,11.6363063 -1.32126957,16.5377411 3.47288099,25.778157 L6.51534897,33.5957447 L46.5051798,33.2576668 Z" id="发型" fill="#9499AD"></path>
                        <g id="Path-4" transform="translate(2.000000, 51.595745)">
                            <mask id="mask-4" fill="white">
                                <use xlink:href="#path-3"></use>
                            </mask>
                            <use id="Mask" fill="#FEE9E8" xlink:href="#path-3"></use>
                            <path d="M38.845988,0.618983381 C34.9247647,12.3129097 24.1232714,18.4844131 6.44150787,19.1334933 L7.24814142,-1.28380272 L38.845988,0.618983381 Z" fill="#F5DDDD" mask="url(#mask-4)"></path>
                        </g>
                        <g id="Path-21" transform="translate(0.000000, 17.595745)">
                            <mask id="mask-6" fill="white">
                                <use xlink:href="#path-5"></use>
                            </mask>
                            <use id="Mask" fill="#FFEEEE" xlink:href="#path-5"></use>
                            <path d="M6.39156959,19.5350681 L8.07578438,30.3072921 L2.4038815,24.9211801 C4.39321714,25.8266723 5.64716981,25.9292062 6.1657395,25.2287817 C6.6843092,24.5283572 6.75958589,22.6304527 6.39156959,19.5350681 Z" fill="#E9D0D0" mask="url(#mask-6)"></path>
                            <path d="M48.2918715,19.5350681 L49.9760863,30.3072921 L44.3041834,24.9211801 C46.2935191,25.8266723 47.5474717,25.9292062 48.0660414,25.2287817 C48.5846111,24.5283572 48.6598878,22.6304527 48.2918715,19.5350681 Z" id="Path-21-Copy" fill="#E9D0D0" mask="url(#mask-6)" transform="translate(47.140135, 24.921180) scale(-1, 1) translate(-47.140135, -24.921180) "></path>
                        </g>
                    </g>
                    <g id="头像" transform="translate(221.856459, 97.989691)" fill-rule="nonzero">
                        <path d="M85.2486363,10.06421 L63.6946266,5.18549986 C63.4007868,5.11726619 63.0896623,4.96374034 62.7958227,4.8102145 L45.3555694,14.7041023 L28.5894191,4.36669534 C28.1400171,4.7419807 27.6214764,5.03197401 27.0165123,5.18549986 L5.47978716,10.06421 C2.33397335,10.7977224 0.0869635595,13.458837 0.0869635595,16.6317046 L0.0869635595,29.7837521 C0.0869635595,31.6260622 1.6598704,33.1783791 3.59575588,33.1783791 L87.1845217,33.1783791 C89.1376918,33.1783791 90.693314,31.6942959 90.693314,29.7837521 L90.693314,16.6317046 C90.6414599,13.5441293 88.3944501,10.7977225 85.2486363,10.06421" id="路径" fill="#EDF1F6"></path>
                        <path d="M12.2899555,22.2439271 L1.52159296,12.5035652 C0.622789066,13.6805967 0.104248335,15.0793877 0.104248335,16.6317046 L0.104248335,29.7837521 C0.104248335,31.6260622 1.60801645,33.1101454 3.40562424,33.1101454 L15.0727907,33.1101454 L15.0727907,28.4531948 C15.055506,26.1673655 14.0875633,23.8815363 12.2899555,22.2439271 M77.8507885,22.2439271 L89.1549764,12.5035652 C90.1229192,13.6805967 90.6587446,15.0793877 90.6587446,16.6317046 L90.6587446,29.7837521 C90.6587446,31.6260622 89.0858377,33.1101454 87.1499522,33.1101454 L74.9469604,33.1101454 L74.9469604,28.4531948 C74.9296758,26.1673655 75.9840419,23.8815363 77.8507885,22.2439271" id="形状" fill="#E3E9F0"></path>
                        <polyline id="路径" fill="#E3E9F0" points="49.4866105 33.1783791 40.4985713 33.1783791 41.6220761 18.405781 48.3631056 18.405781 49.4866105 33.1783791"></polyline>
                        <path d="M49.4866105,14.7211607 L40.4985713,14.7211607 L40.4985713,17.962262 C40.4985713,19.002826 41.3973751,19.8898642 42.5208801,19.8898642 L47.4643017,19.8898642 C48.5878067,19.8898642 49.4866105,19.002826 49.4866105,17.962262 L49.4866105,14.7211607" id="路径" fill="#C7CDE5"></path>
                        <path d="M29.0561058,1.1255942 L44.9925908,15.011154 C44.9925908,15.011154 40.4985711,17.2287495 35.0366088,21.5786485 C33.9131039,22.4656866 32.1846348,22.0904013 31.5969553,20.8451361 L24.1126842,4.89550655 L26.5152562,1.43264589 C27.0337969,0.613841377 28.2264406,0.460315531 29.0561058,1.1255942 M60.929076,1.1255942 L44.9925908,15.011154 C44.9925908,15.011154 49.4866105,17.2287495 54.9485729,21.5786485 C56.0720778,22.4656866 57.7832622,22.0904013 58.3882265,20.8451361 L65.8724976,4.89550655 L63.4699256,1.43264589 C62.9513849,0.613841377 61.7587412,0.460315531 60.929076,1.1255942" id="形状" fill="#E3E9F0"></path>
                        <path d="M67.9639452,29.4937588 L55.778238,29.4937588 C54.8102953,29.4937588 54.049769,30.3125633 54.049769,31.3360689 L54.049769,33.1783791 L69.7615531,33.1783791 L69.7615531,31.3360689 C69.6924144,30.2955049 68.9491726,29.4937588 67.9639452,29.4937588" id="路径" fill="#E3E9F0"></path>
                    </g>
                    <g id="编组" transform="translate(126.053731, 63.505155)" fill-rule="nonzero">
                        <path d="M0,47.0103093 C0,72.9733862 21.0252427,94.0206186 46.961194,94.0206186 C72.8971453,94.0206186 93.9223881,72.9733862 93.9223881,47.0103093 C93.9223881,21.0472324 72.8971453,0 46.961194,0 C21.0252427,0 0,21.0472324 0,47.0103093 L0,47.0103093 Z" id="路径" fill="#000000" opacity="0.4"></path>
                        <path d="M46.7140299,36.2628866 C53.4940523,36.2628866 58.8250746,41.581833 58.8250746,48.3514011 C58.8250746,55.1174267 53.4940523,60.4381443 46.7140299,60.4381443 C39.9304029,60.4381443 34.6029851,55.1191979 34.6029851,48.3514011 C34.6029851,41.581833 39.9304031,36.2628866 46.7140299,36.2628866 Z M46.7122198,40.5798969 C42.4111838,40.5798969 38.9283582,44.0599953 38.9283582,48.3514051 C38.9283582,52.6428149 42.414804,56.121134 46.7122198,56.121134 C51.0132557,56.121134 54.4997015,52.6428149 54.4997015,48.3514051 C54.4997015,44.0599953 51.0132557,40.5798969 46.7122198,40.5798969 Z M39.7057956,25.9020619 L35.5017241,30.9266576 L28.0285918,30.9266576 C25.4581817,30.9266576 23.3570149,32.8218078 23.3570149,35.4459965 L23.3570149,62.5725193 C23.3570149,65.1984561 25.4599197,67.3453608 28.0268538,67.3453608 L65.3994679,67.3453608 C67.969878,67.3453608 70.0710448,65.1984564 70.0710448,62.5725193 L70.0710448,35.4459965 C70.0710448,32.8235561 67.96814,30.9266576 65.3994679,30.9266576 L57.9263356,30.9266576 L53.7187882,25.9020619 L39.7040576,25.9020619 L39.7057956,25.9020619 Z" id="形状" fill="#F6F9FC"></path>
                    </g>
                </g>
            </g>
        </g>
    </g>
</svg>