<?xml version="1.0" encoding="UTF-8"?>
<svg width="30px" height="30px" viewBox="0 0 30 30" version="1.1" xmlns="http://www.w3.org/2000/svg" xmlns:xlink="http://www.w3.org/1999/xlink">
    <title>形状</title>
    <g id="星际云二期" stroke="none" stroke-width="1" fill="none" fill-rule="evenodd">
        <g id="我的_设置_实名认证成功" transform="translate(-558.000000, -168.000000)" fill="#07C160" fill-rule="nonzero">
            <g id="选择支付方式" transform="translate(0.000000, 128.000000)">
                <path d="M573.000137,40 C564.715843,40 558,46.7159686 558,54.9999657 C558,63.2839628 564.715843,70 573.000137,70 C581.284157,70 588,63.2839285 588,54.9999657 C588,46.7159686 581.284157,40 573.000137,40 L573.000137,40 L573.000137,40 Z M573.000137,67.8719932 C565.90191,67.8719932 560.128021,62.0972188 560.128021,54.9999657 C560.128021,47.9018555 565.902458,42.1280068 573.000137,42.1280068 C580.097439,42.1280068 585.87215,47.9025412 585.87215,54.9999657 C585.87215,62.0980416 580.098227,67.8719932 573.000137,67.8719932 L573.000137,67.8719932 L573.000137,67.8719932 Z M570.843625,58.329562 L566.569376,55.0153254 L564.443686,57.163869 L571.617067,63.6176253 C571.617067,63.6176253 575.864607,53.9525563 581.609182,49.4839751 L581.014914,48.5925629 C581.014948,48.5925629 576.268214,50.9589882 570.843625,58.329562 L570.843625,58.329562 L570.843625,58.329562 Z" id="形状"></path>
            </g>
        </g>
    </g>
</svg>