<svg width="40" height="40" viewBox="0 0 40 40" fill="none" xmlns="http://www.w3.org/2000/svg">
<path d="M39.7573 16.875C39.9171 17.8932 40 18.9369 40 20C40 31.0457 31.0457 40 20 40C8.9543 40 0 31.0457 0 20C0 8.9543 8.9543 0 20 0C20.8466 0 21.681 0.0526172 22.5 0.154727V2.99301C21.6721 2.87256 20.8366 2.81224 20 2.8125C10.5076 2.8125 2.8125 10.5076 2.8125 20C2.8125 29.4924 10.5076 37.1875 20 37.1875C29.4924 37.1875 37.1875 29.4924 37.1875 20C37.1875 18.9328 37.0902 17.8884 36.9041 16.875H39.7573Z" fill="#FA6400"/>
<path d="M20.9766 1.5625C20.9766 1.74717 21.0129 1.93003 21.0836 2.10065C21.1543 2.27126 21.2579 2.42629 21.3884 2.55687C21.519 2.68745 21.674 2.79103 21.8447 2.86171C22.0153 2.93238 22.1981 2.96875 22.3828 2.96875C22.5675 2.96875 22.7503 2.93238 22.921 2.86171C23.0916 2.79103 23.2466 2.68745 23.3772 2.55687C23.5078 2.42629 23.6113 2.27126 23.682 2.10065C23.7527 1.93003 23.7891 1.74717 23.7891 1.5625C23.7891 1.37783 23.7527 1.19497 23.682 1.02435C23.6113 0.853737 23.5078 0.698714 23.3772 0.568131C23.2466 0.437549 23.0916 0.333965 22.921 0.263294C22.7503 0.192624 22.5675 0.15625 22.3828 0.15625C22.1981 0.15625 22.0153 0.192624 21.8447 0.263294C21.674 0.333965 21.519 0.437549 21.3884 0.568131C21.2579 0.698714 21.1543 0.853737 21.0836 1.02435C21.0129 1.19497 20.9766 1.37783 20.9766 1.5625Z" fill="#FA6400"/>
<path d="M36.9141 17.0312C36.9141 17.4042 37.0622 17.7619 37.3259 18.0256C37.5897 18.2893 37.9474 18.4375 38.3203 18.4375C38.6933 18.4375 39.051 18.2893 39.3147 18.0256C39.5784 17.7619 39.7266 17.4042 39.7266 17.0312C39.7266 16.6583 39.5784 16.3006 39.3147 16.0369C39.051 15.7732 38.6933 15.625 38.3203 15.625C37.9474 15.625 37.5897 15.7732 37.3259 16.0369C37.0622 16.3006 36.9141 16.6583 36.9141 17.0312Z" fill="#FA6400"/>
<path d="M24.9762 22.6577C25.3671 22.7923 25.7602 22.709 26.0229 22.5808C26.3732 22.41 26.6808 22.1515 26.7279 21.8033L30.003 12.2917C30.0479 12.1614 30.0051 12.0738 30.0927 12.0311L34.6531 13.6014C35.4349 13.8705 36.2274 13.0504 35.8429 12.2621L31.9985 4.37985C31.7849 3.94196 31.221 3.67489 30.6955 3.93121L22.8132 7.77567C22.025 8.16012 22.1446 9.29438 22.9264 9.56356L27.4868 11.1338C27.4419 11.2641 27.3543 11.3068 27.397 11.3944L24.6154 19.4728L16.537 16.6912C15.7552 16.422 14.967 16.8065 14.6979 17.5882L11.1535 27.8816C10.8843 28.6634 11.2688 29.4516 12.0506 29.7208C12.4414 29.8554 12.8345 29.7721 13.0972 29.644C13.4475 29.4731 13.7552 29.2147 13.8022 28.8665L16.8979 19.876L24.9762 22.6577Z" fill="#FA6400"/>
</svg>
