<svg width="40" height="40" viewBox="0 0 40 40" fill="none" xmlns="http://www.w3.org/2000/svg">
<path d="M25.6185 1.57332C25.8046 1.62998 25.9778 1.72275 26.1281 1.84633C26.2784 1.96991 26.4028 2.12188 26.4944 2.29357C26.5859 2.46525 26.6428 2.65329 26.6617 2.84694C26.6805 3.04059 26.6611 3.23607 26.6044 3.4222C26.5478 3.60834 26.455 3.78149 26.3314 3.93178C26.2078 4.08206 26.0559 4.20653 25.8842 4.29808C25.7125 4.38964 25.5245 4.44648 25.3308 4.46536C25.1371 4.48424 24.9417 4.46479 24.7555 4.40813C23.2139 3.93947 21.6113 3.70207 20 3.70369C11 3.70369 3.70369 11 3.70369 20C3.70369 29 11 36.2963 20 36.2963C29 36.2963 36.2963 29 36.2963 20C36.2963 18.3718 36.0578 16.777 35.5941 15.2518C35.4797 14.8759 35.5194 14.47 35.7044 14.1233C35.8893 13.7766 36.2044 13.5177 36.5804 13.4033C36.9563 13.289 37.3622 13.3287 37.7089 13.5136C38.0555 13.6986 38.3145 14.0137 38.4289 14.3896C38.981 16.2085 39.2609 18.0991 39.2592 20C39.2592 30.637 30.637 39.2592 20 39.2592C9.36295 39.2592 0.740723 30.637 0.740723 20C0.740723 9.36295 9.36295 0.740723 20 0.740723C21.9244 0.740723 23.8118 1.02369 25.6185 1.57332ZM32.4281 2.65628C32.7059 2.9341 32.8619 3.31085 32.8619 3.70369C32.8619 4.09652 32.7059 4.47327 32.4281 4.75109L27.7141 9.46517C27.4346 9.73503 27.0604 9.88436 26.672 9.88098C26.2835 9.87761 25.912 9.7218 25.6373 9.44712C25.3626 9.17244 25.2068 8.80087 25.2034 8.41243C25.2001 8.02399 25.3494 7.64976 25.6192 7.37035L30.3333 2.65628C30.6111 2.37854 30.9879 2.22252 31.3807 2.22252C31.7736 2.22252 32.1503 2.37854 32.4281 2.65628ZM37.1422 7.37035C37.4199 7.64817 37.576 8.02492 37.576 8.41776C37.576 8.8106 37.4199 9.18735 37.1422 9.46517L32.4281 14.1792C32.2915 14.3207 32.128 14.4336 31.9473 14.5112C31.7665 14.5889 31.5721 14.6298 31.3754 14.6315C31.1787 14.6332 30.9836 14.5957 30.8015 14.5212C30.6195 14.4467 30.4541 14.3367 30.315 14.1976C30.1759 14.0585 30.0658 13.8931 29.9914 13.711C29.9169 13.529 29.8794 13.3339 29.8811 13.1372C29.8828 12.9405 29.9237 12.7461 30.0013 12.5653C30.079 12.3846 30.1918 12.2211 30.3333 12.0844L35.0474 7.37035C35.3252 7.09262 35.702 6.93659 36.0948 6.93659C36.4876 6.93659 36.8644 7.09262 37.1422 7.37035Z" fill="black" stroke="black"/>
<path d="M15.4199 20L19.9999 24.58L24.5799 20L19.9999 15.42L15.4199 20ZM21.1703 13.4474L26.5525 18.8297C26.7062 18.9833 26.8282 19.1658 26.9114 19.3666C26.9946 19.5674 27.0374 19.7827 27.0374 20C27.0374 20.2174 26.9946 20.4326 26.9114 20.6335C26.8282 20.8343 26.7062 21.0167 26.5525 21.1704L21.1703 26.5526C21.0166 26.7064 20.8342 26.8283 20.6333 26.9115C20.4325 26.9947 20.2173 27.0375 19.9999 27.0375C19.7825 27.0375 19.5673 26.9947 19.3665 26.9115C19.1657 26.8283 18.9832 26.7064 18.8295 26.5526L13.4473 21.1704C13.2936 21.0167 13.1716 20.8343 13.0884 20.6335C13.0052 20.4326 12.9624 20.2174 12.9624 20C12.9624 19.7827 13.0052 19.5674 13.0884 19.3666C13.1716 19.1658 13.2936 18.9833 13.4473 18.8297L18.8295 13.4474C18.9832 13.2937 19.1657 13.1718 19.3665 13.0886C19.5673 13.0054 19.7825 12.9625 19.9999 12.9625C20.2173 12.9625 20.4325 13.0054 20.6333 13.0886C20.8342 13.1718 21.0166 13.2937 21.1703 13.4474Z" fill="#42C1CA" stroke="#42C1CA"/>
</svg>
