<svg width="36" height="40" viewBox="0 0 36 40" fill="none" xmlns="http://www.w3.org/2000/svg">
<path d="M36 1.3597V21.5827C35.9769 21.6962 35.9597 21.811 35.9486 21.9265C35.8374 24.0591 35.4133 26.1322 34.5878 28.0942C31.8573 34.5883 27.0313 38.4432 20.2279 39.7447C19.6081 39.863 18.9757 39.9153 18.3496 39.9981H1.905C1.82753 39.9716 1.75069 39.9425 1.67259 39.9192C0.967739 39.7066 0.454659 39.273 0.180975 38.5699C0.10795 38.385 0.0596899 38.1912 0 37.9973V1.29508C0.392429 0.304384 0.728344 0.0672123 1.79197 0.0672123C6.39232 0.0568723 10.9929 0.0486866 15.5937 0.042655C15.7289 0.042655 15.8648 0.0180976 16.0001 0.00517273H34.8595C35.4844 0.23976 35.8774 0.681791 36 1.3597ZM2.8848 37.0874H17.491C17.9672 37.0895 18.4431 37.0647 18.9166 37.0131C22.4593 36.6091 25.5543 35.1861 28.1324 32.6832C31.4344 29.474 33.1019 25.5235 33.1082 20.8679C33.1158 15.0198 33.1158 9.17238 33.1082 3.32558V2.97144H2.88226L2.8848 37.0874Z" fill="#FA6400"/>
<path d="M16.002 0.002585C15.8668 0.0155099 15.7309 0.0400672 15.5956 0.0400672C10.9948 0.0491146 6.39428 0.0573004 1.79392 0.0646245C0.730297 0.0646245 0.396923 0.304382 0.00195312 1.29249V0L16.002 0.002585Z" fill="#FA6400"/>
<path d="M16.364 20.3115H6.30493C5.42292 20.3115 4.81205 19.7641 4.75426 18.944C4.69775 18.1382 5.29973 17.4609 6.12776 17.4001C6.18047 17.3963 6.23381 17.3963 6.28651 17.3963H28.3407C29.1325 17.3963 29.6996 17.8538 29.8501 18.597C29.8879 18.7898 29.8861 18.9885 29.8449 19.1807C29.8038 19.3728 29.724 19.5542 29.6108 19.7135C29.4975 19.8728 29.3531 20.0066 29.1867 20.1065C29.0203 20.2064 28.8354 20.2702 28.6436 20.294C28.4747 20.3094 28.3051 20.315 28.1356 20.3108C24.8475 20.3121 19.6532 20.3115 16.364 20.3115ZM16.3493 11.5238H6.25921C5.45022 11.5238 4.85205 11.0068 4.76061 10.2417C4.66092 9.40609 5.25274 8.6907 6.11062 8.61703C6.16332 8.6125 6.21666 8.6125 6.26937 8.6125H28.3553C29.142 8.6125 29.7053 9.07845 29.852 9.82744C29.8879 10.0205 29.8842 10.2191 29.8412 10.4107C29.7982 10.6023 29.7167 10.7827 29.602 10.9408C29.4872 11.0988 29.3416 11.2311 29.1743 11.3292C29.0069 11.4273 28.8215 11.4892 28.6296 11.5109C28.4925 11.5221 28.355 11.5262 28.2175 11.5232L16.3493 11.5238ZM12.8359 29.4927C10.6572 29.4927 8.47917 29.4882 6.30112 29.4927C5.62802 29.4927 5.13653 29.2193 4.86793 28.5841C4.78389 28.3915 4.74314 28.1823 4.74866 27.9717C4.75419 27.7612 4.80584 27.5545 4.89984 27.3668C4.99385 27.1791 5.12785 27.0151 5.29206 26.8868C5.45626 26.7586 5.64654 26.6692 5.849 26.6253C6.00369 26.5903 6.16172 26.573 6.32017 26.5736C10.6873 26.571 15.0542 26.571 19.4208 26.5736C20.28 26.5736 20.8858 27.1126 20.9645 27.921C20.9987 28.2893 20.8912 28.6567 20.6646 28.946C20.4381 29.2352 20.1101 29.4238 19.7498 29.472C19.592 29.4884 19.4334 29.4951 19.2748 29.492C17.1285 29.4933 14.9822 29.4936 12.8359 29.4927Z" fill="#FA6400"/>
</svg>
